<?xml version="1.0" encoding="utf-8"?>
<!-- Generator: Adobe Illustrator 26.1.0, SVG Export Plug-In . SVG Version: 6.00 Build 0)  -->
<svg version="1.1" id="Layer_1" xmlns="http://www.w3.org/2000/svg" xmlns:xlink="http://www.w3.org/1999/xlink" x="0px" y="0px"
	 viewBox="0 0 698.34 618.53" style="enable-background:new 0 0 698.34 618.53;" xml:space="preserve">
<style type="text/css">
	.st0{fill:url(#SVGID_1_);}
	.st1{fill:#6B7280;}
</style>
<linearGradient id="SVGID_1_" gradientUnits="userSpaceOnUse" x1="143.5949" y1="260.8625" x2="561.5026" y2="260.8625">
	<stop  offset="0" style="stop-color:#BA70EB"/>
	<stop  offset="1" style="stop-color:#1F0094"/>
</linearGradient>
<polygon class="st0" points="143.59,130.19 183.27,130.19 183.27,146.55 234.35,146.55 234.35,163.87 269.96,163.87 269.96,181.19 
	302.48,181.19 302.48,197.03 417.42,197.03 417.42,181.19 466.43,181.19 466.43,163.87 501.67,163.87 501.67,145.87 561.5,145.87 
	561.5,163.87 540.32,163.87 540.32,180.11 519.14,180.11 519.14,197.43 502.11,197.43 502.11,250.59 484.05,250.59 484.05,303.74 
	466.43,303.74 466.43,356.9 414.44,356.9 414.44,374.22 363.13,374.22 363.13,391.54 248.19,391.54 248.19,374.22 171.02,374.22 
	171.02,356.9 143.59,356.9 "/>
<g>
	<g>
		<rect x="182.42" y="129.23" class="st1" width="51.93" height="17.32"/>
		<rect x="234.35" y="146.55" class="st1" width="39.5" height="17.32"/>
		<rect x="269.96" y="163.87" class="st1" width="32.57" height="17.32"/>
		<rect x="302.48" y="179.7" class="st1" width="114.94" height="17.32"/>
		<rect x="417.38" y="163.87" class="st1" width="49.06" height="17.32"/>
		<rect x="466.43" y="146.55" class="st1" width="35.24" height="17.32"/>
		<rect x="502.11" y="128.55" class="st1" width="114.94" height="17.32"/>
		<rect x="561.5" y="145.87" class="st1" width="21.18" height="17.32"/>
		<rect x="540.32" y="163.87" class="st1" width="21.18" height="17.32"/>
		<rect x="519.14" y="180.11" class="st1" width="21.18" height="17.32"/>
		
			<rect x="484.2" y="215.35" transform="matrix(-1.836970e-16 1 -1 -1.836970e-16 734.7849 -286.7639)" class="st1" width="53.15" height="17.32"/>
		
			<rect x="466.14" y="268.5" transform="matrix(-1.836970e-16 1 -1 -1.836970e-16 769.8773 -215.5473)" class="st1" width="53.15" height="17.32"/>
		<rect x="414.44" y="356.9" class="st1" width="51.99" height="17.32"/>
		<rect x="363.13" y="374.22" class="st1" width="51.31" height="17.32"/>
		
			<rect x="448.52" y="321.66" transform="matrix(-1.836970e-16 1 -1 -1.836970e-16 805.4122 -144.7731)" class="st1" width="53.15" height="17.32"/>
		<rect x="248.19" y="391.54" class="st1" width="114.94" height="17.32"/>
		<rect x="171.02" y="374.22" class="st1" width="77.18" height="17.32"/>
		<rect x="143.59" y="356.9" class="st1" width="27.42" height="17.32"/>
		<rect x="143.59" y="112.86" class="st1" width="39.68" height="17.32"/>
		<rect x="121.34" y="28.39" class="st1" width="22.25" height="561.75"/>
	</g>
</g>
</svg>
