<?xml version="1.0" encoding="utf-8"?>
<!-- Generator: Adobe Illustrator 26.1.0, SVG Export Plug-In . SVG Version: 6.00 Build 0)  -->
<svg version="1.1" id="Layer_1" xmlns="http://www.w3.org/2000/svg" xmlns:xlink="http://www.w3.org/1999/xlink" x="0px" y="0px"
	 viewBox="0 0 845.98 323.43" style="enable-background:new 0 0 845.98 323.43;" xml:space="preserve">
<style type="text/css">
	.st0{fill:#FFFFFF;}
	.st1{fill:#2C5AA0;}
	.st2{fill:#5F7EB6;}
</style>
<g>
	<path class="st0" d="M81.19,262.28c-7.2,0-14.4,0.03-21.6-0.01c-5.84-0.04-8.44-2.22-9.27-8.06c-1.59-11.14-3.05-22.29-4.55-33.44
		c-1.59-11.8-3.17-23.61-4.76-35.41c-1.6-11.86-3.21-23.71-4.81-35.57c-1.59-11.75-3.2-23.49-4.8-35.24
		c-1.58-11.64-3.17-23.27-4.75-34.91c-1.6-11.75-3.27-23.48-4.76-35.24c-0.45-3.57-0.61-7.2-0.56-10.8
		c0.05-2.87,1.94-4.67,4.69-5.19c2.69-0.51,5.44-0.94,8.16-0.92c9.78,0.08,19.56,0.3,29.34,0.6c3.57,0.11,6.06,2.48,6.58,6.24
		c0.79,5.71,1.36,11.44,2,17.17c1.18,10.58,2.33,21.17,3.49,31.76c1.03,9.38,2.07,18.77,3.11,28.15
		c1.16,10.48,2.33,20.95,3.49,31.43c1.03,9.33,2.07,18.66,3.1,27.99c1.17,10.53,2.34,21.06,3.51,31.59
		c0.38,3.38,0.74,6.77,1.11,10.15c0.05,0.44,0.01,0.9,0.16,1.3c0.22,0.61,0.56,1.18,0.86,1.77c0.51-0.46,1.2-0.83,1.49-1.41
		c29.32-58.22,58.61-116.46,87.94-174.68c1.18-2.34,2.54-4.64,4.16-6.69c2.65-3.36,6.3-5.15,10.6-5.17
		c9.73-0.06,19.45-0.01,29.18,0.06c1.3,0.01,2.63,0.29,3.88,0.65c3.03,0.87,4.22,2.87,3.41,5.9c-0.47,1.73-1.15,3.44-1.98,5.03
		c-12.35,23.46-24.65,46.93-37.13,70.32c-25.55,47.89-51.21,95.72-76.82,143.58c-0.62,1.16-1.26,2.32-1.98,3.42
		c-2.45,3.7-5.85,5.66-10.36,5.64C95.92,262.25,88.56,262.28,81.19,262.28z"/>
	<path class="st0" d="M309.67,232.44c-1.65,1.82-3.32,3.61-4.94,5.46c-9.03,10.38-19.81,18.35-32.73,23.19
		c-13,4.87-26.36,6.08-39.76,2.05c-14.7-4.42-23.8-14.77-28.76-28.99c-2.46-7.04-3.55-14.4-3.98-21.8
		c-1.64-28.57,4.54-55.53,17.55-80.89c6.31-12.3,14.38-23.45,25.32-32.13c13.74-10.91,29.51-16.31,47.09-15.85
		c12.47,0.32,23.7,4.2,33.09,12.74c4.13,3.75,8.4,7.34,12.75,11.12c0.67-3.35,1.32-6.82,2.05-10.27c0.33-1.55,0.63-3.14,1.24-4.58
		c1.19-2.83,3.45-4.41,6.54-4.47c8.68-0.16,17.35-0.23,26.03-0.34c0.27,0,0.55,0.01,0.82,0.03c4.18,0.33,5.78,1.93,5.18,6.04
		c-0.81,5.53-2.01,11-3.11,16.49c-4.99,24.95-10.01,49.9-15.01,74.85c-4.52,22.53-9.03,45.07-13.54,67.6
		c-0.06,0.32-0.16,0.64-0.24,0.96c-1.33,5.43-3.12,7.09-8.62,7.66c-8.61,0.89-17.24,0.64-25.85-0.04c-4.35-0.34-5.68-2.2-4.89-6.5
		c1.26-6.85,2.58-13.69,3.88-20.53c0.1-0.53,0.17-1.07,0.25-1.6C309.91,232.56,309.79,232.5,309.67,232.44z M245.47,200.76
		c0.41,2.95,0.77,7.73,1.76,12.38c1.91,8.92,8.08,13.76,17.2,14.07c7.12,0.24,13.36-2.19,19.11-6.12
		c14.94-10.21,24.66-24.3,30.49-41.24c3.98-11.56,5.93-23.6,8.37-35.52c0.28-1.34-0.13-3.22-0.94-4.31c-2.56-3.4-5.14-6.92-8.3-9.73
		c-13.84-12.27-32.77-11.37-45.35,2.07c-6.27,6.7-10.56,14.68-13.96,23.14C248.25,169.43,246.32,184.07,245.47,200.76z"/>
	<path class="st0" d="M411.79,262.91c-5.57-0.28-10.8-0.41-15.99-0.85c-4.59-0.39-6.06-2.47-5.24-7c0.84-4.59,1.78-9.15,2.69-13.73
		c4.89-24.48,9.79-48.95,14.68-73.42c5-25.01,10.02-50.02,15.01-75.04c4.81-24.1,9.6-48.2,14.37-72.31c1.05-5.33,4.06-8.3,9.51-8.96
		c5.07-0.62,10.15-1.28,15.24-1.55c2.65-0.14,5.34,0.49,8.01,0.85c2.77,0.37,5.55,0.74,8.3,1.28c3.23,0.63,4.75,2.44,4.35,5.71
		c-0.47,3.86-1.34,7.67-2.1,11.48c-4.88,24.42-9.8,48.83-14.68,73.25c-5.02,25.12-10.02,50.24-15.02,75.36
		c-4.79,24.05-9.57,48.1-14.36,72.14c-0.38,1.88-0.82,3.75-1.3,5.61c-1,3.87-3.59,6-7.51,6.29
		C422.31,262.42,416.87,262.63,411.79,262.91z"/>
	<path class="st0" d="M500.51,262.04c-5.22,0-10.44,0.08-15.66-0.03c-4-0.08-5.81-2.15-5.12-6.08c1.39-7.88,2.97-15.74,4.53-23.59
		c4.77-24.05,9.58-48.09,14.35-72.13c4.13-20.82,8.19-41.65,12.33-62.47c1.08-5.46,3.63-7.88,9.13-8.65c5-0.7,10.02-1.44,15.05-1.73
		c3.03-0.17,6.12,0.4,9.17,0.77c2.61,0.32,5.23,0.71,7.8,1.27c3.81,0.83,5.09,2.77,4.34,6.56c-3.47,17.65-6.96,35.3-10.47,52.94
		c-4.69,23.56-9.4,47.11-14.09,70.67c-2.3,11.56-4.56,23.14-6.9,34.69c-1.06,5.24-3.82,7.58-9.13,7.69
		c-5.11,0.11-10.22,0.02-15.33,0.02C500.51,262,500.51,262.02,500.51,262.04z"/>
	<path class="st0" d="M525.51,61.68c-5.31-1.54-7.86-5.94-7.36-11.45c0.67-7.35,2.27-14.53,4.93-21.41
		c2.43-6.27,7.27-9.91,13.81-10.87c8.31-1.22,16.71-1.33,25.05-0.17c5.71,0.79,10.09,5.65,10.17,11.41
		c0.09,6.98-1.15,13.79-3.51,20.33c-3.12,8.64-9.82,12.71-18.65,13.7c-3.18,0.35-6.38,0.53-9.57,0.78c-0.08,0.01-0.15,0-0.23-0.01
		L525.51,61.68z"/>
</g>
<g>
	<path class="st1" d="M803.26,320.43c-0.94-0.26-1.9-0.47-2.82-0.78c-1.92-0.65-3.56-1.67-4.59-3.74c1.79-1.45,3.57-2.88,5.38-4.34
		c2.26,2.17,4.76,2.61,7.48,1.33c3.04-1.43,3.38-4.28,3.67-6.92c-1.69,0.95-3.32,2.26-5.17,2.83c-4.73,1.44-8.68-1.54-8.8-6.47
		c-0.13-5.1,0.93-10.03,2.72-14.78c0.95-2.5,2.54-4.61,4.94-5.99c4.11-2.35,7.2-1.65,10.5,2.54c0.23-0.91,0.51-1.66,0.58-2.42
		c0.08-0.88,0.52-1.06,1.3-1.05c1.97,0.01,3.95-0.06,5.92-0.09c0,0.11,0,0.22,0,0.33c-0.14,0.29-0.34,0.56-0.4,0.86
		c-1.66,8.6-3.32,17.2-4.96,25.8c-1.17,6.13-4.13,10.7-10.57,12.28c-0.95,0.23-1.92,0.41-2.87,0.61
		C804.8,320.43,804.03,320.43,803.26,320.43z M805.48,297.38c-0.05,3.22,0.72,4.57,2.22,4.97c2.33,0.63,4.92-0.27,5.59-2.57
		c0.96-3.27,1.47-6.69,1.9-10.09c0.2-1.54-0.97-2.47-2.54-2.68c-2.55-0.34-4.68,0.85-5.56,3.57
		C806.28,293.11,805.86,295.77,805.48,297.38z"/>
	<path class="st1" d="M602.71,296.71c-2.29,7.79-9.38,15.27-19.57,12.97c-5.76-1.3-8-5.81-7.35-11.35
		c0.61-5.21,1.64-10.39,2.88-15.49c1.6-6.55,5.45-11.27,12.39-12.59c2.16-0.41,4.54-0.42,6.68,0.02c4.98,1.03,8.66,7.01,7.68,12.05
		c-0.07,0.35-0.7,0.81-1.09,0.83c-1.59,0.1-3.19,0.12-4.78-0.01c-0.43-0.04-1.06-0.65-1.18-1.11c-0.55-2.24-1.35-4.34-3.86-4.84
		c-2.69-0.54-5.27,0.11-6.93,2.41c-1.03,1.42-1.78,3.16-2.2,4.87c-0.9,3.72-1.51,7.51-2.23,11.28c-0.56,2.94,0.24,5.35,2.12,6.44
		c2.23,1.29,5.41,0.93,7.48-1.05c1.01-0.97,1.85-2.17,2.55-3.4c0.45-0.79,0.91-1.08,1.79-1.06
		C598.96,296.75,600.81,296.71,602.71,296.71z"/>
	<path class="st1" d="M632.36,290.98c-0.42,3.3-0.87,7.44-2.61,11.3c-3.23,7.16-11.05,8.81-16.79,6.94
		c-3.82-1.24-5.8-4.94-5.14-9.58c0.38-2.71,0.9-5.41,1.58-8.05c2.25-8.83,9.79-11.74,17.08-10.12
		C630.51,282.35,632.51,285.42,632.36,290.98z M614.83,298.19c-0.08,3.57,1.58,5.09,4.35,4.78c2.53-0.28,4.33-1.75,4.98-4.34
		c0.54-2.17,0.94-4.39,1.24-6.61c0.29-2.12-0.91-3.6-3-4c-2.64-0.5-5.23,0.88-6.08,3.59C615.57,294,615.2,296.51,614.83,298.19z"/>
	<path class="st1" d="M768.11,309.71c1.82-9.48,3.6-18.74,5.39-28.05c2.27,0,4.39,0,6.71,0c-0.13,1.13-0.26,2.17-0.38,3.22
		c0.19,0.15,0.37,0.3,0.56,0.45c0.34-0.54,0.61-1.16,1.04-1.62c2.07-2.14,4.65-2.86,7.53-2.37c4.17,0.71,5.86,4.19,5.31,8.35
		c-0.89,6.66-2.31,13.24-3.52,19.92c-2.27,0-4.39,0-6.83,0c0.31-1.77,0.58-3.46,0.9-5.15c0.72-3.87,1.45-7.74,2.21-11.61
		c0.33-1.67,0.29-3.21-1.33-4.21c-1.5-0.92-4.1-0.81-5.4,0.51c-0.91,0.93-1.72,2.2-2,3.45c-1.13,5.13-2.08,10.3-3,15.46
		c-0.23,1.27-0.72,1.75-2.03,1.66C771.64,309.62,770,309.71,768.11,309.71z"/>
	<path class="st1" d="M648.01,281.57c-0.19,1.25-0.34,2.26-0.5,3.27c0.09,0.07,0.18,0.14,0.27,0.22c0.43-0.42,0.87-0.84,1.29-1.28
		c1.97-2.06,4.4-2.81,7.18-2.53c3.31,0.33,5.74,2.84,5.67,6.36c-0.06,2.99-0.52,5.99-1,8.95c-0.65,3.94-1.52,7.85-2.23,11.78
		c-0.18,0.98-0.53,1.43-1.6,1.38c-1.75-0.08-3.5-0.02-5.5-0.02c0.47-2.56,0.9-4.95,1.35-7.34c0.57-3.01,1.15-6.02,1.74-9.03
		c0.53-2.7,0.01-4.25-1.71-4.93c-2.26-0.89-5.14-0.1-6.12,2.11c-0.87,1.96-1.24,4.17-1.68,6.3c-0.81,3.86-1.58,7.73-2.24,11.61
		c-0.19,1.1-0.64,1.33-1.61,1.29c-1.75-0.06-3.49-0.02-5.44-0.02c0.65-3.52,1.25-6.84,1.89-10.17c1.07-5.54,2.19-11.06,3.21-16.61
		c0.19-1.02,0.51-1.42,1.56-1.38C644.29,281.62,646.05,281.57,648.01,281.57z"/>
	<path class="st1" d="M720.35,281.24c-1.83,9.52-3.6,18.75-5.39,28.04c-2.24,0-4.36,0-6.7,0c0.17-1.2,0.33-2.35,0.56-4.01
		c-0.69,0.74-1.06,1.15-1.44,1.55c-1.47,1.57-3.17,2.73-5.38,2.88c-4.74,0.33-7.73-2.13-7.63-6.88c0.07-3.53,0.84-7.05,1.42-10.55
		c0.54-3.24,1.29-6.44,1.86-9.67c0.18-0.98,0.51-1.43,1.58-1.38c1.79,0.08,3.58,0.02,5.52,0.02c-1.06,5.55-2.06,10.87-3.1,16.18
		c-0.58,2.94-0.06,4.56,1.77,5.18c2.59,0.87,5.47-0.31,6.36-2.91c0.69-2,0.99-4.14,1.4-6.24c0.71-3.6,1.38-7.2,2.04-10.81
		c0.18-1.01,0.6-1.49,1.73-1.42C716.65,281.32,718.35,281.24,720.35,281.24z"/>
	<path class="st1" d="M691.44,284.6c-1.78,1.63-3.48,3.18-5.14,4.69c-1.87-0.51-3.93-1.28-6.05-1.58c-1.41-0.2-2.96,0.09-4.34,0.49
		c-0.67,0.2-1.1,1.18-1.64,1.81c0.65,0.51,1.23,1.32,1.95,1.48c2.3,0.49,4.66,0.69,6.98,1.09c4.66,0.81,6.37,3.33,5.41,7.96
		c-0.9,4.29-3.43,7.2-7.62,8.47c-4.9,1.49-9.75,1.13-14.44-0.97c-0.65-0.29-1.25-0.69-1.84-1.08c-0.31-0.2-0.57-0.49-1.02-0.89
		c1.64-1.69,3.2-3.36,4.85-4.94c0.23-0.22,1.02-0.09,1.4,0.14c2.69,1.6,5.56,2.27,8.67,1.85c0.11-0.01,0.22-0.01,0.33-0.02
		c2.08-0.23,3.55-1.27,3.6-2.55c0.05-1.24-1.16-1.98-3.52-2.24c-1.85-0.21-3.71-0.41-5.54-0.74c-4.8-0.86-6.32-3.35-5.18-8.14
		c0.91-3.8,3.23-6.25,6.88-7.52C680.52,280.06,687.29,281.11,691.44,284.6z"/>
	<path class="st1" d="M742.3,287.79c-0.74-0.08-1.44-0.15-2.48-0.26c0.36-1.84,0.66-3.64,1.12-5.4c0.07-0.28,0.87-0.53,1.33-0.52
		c1.05,0.03,1.56-0.25,1.73-1.41c0.33-2.26,0.87-4.49,1.33-6.79c2.23,0,4.35,0,6.74,0c-0.48,2.71-0.94,5.31-1.43,8.08
		c1.1,0.05,2.06,0.1,3.2,0.15c-0.33,1.83-0.54,3.56-1.02,5.22c-0.11,0.39-1.12,0.78-1.67,0.73c-1.45-0.13-1.89,0.56-2.11,1.82
		c-0.59,3.34-1.26,6.66-1.9,9.99c-0.57,2.95-0.43,3.18,2.59,3.77c-0.36,1.96-0.69,3.93-1.11,5.89c-0.06,0.26-0.53,0.63-0.8,0.63
		c-1.75-0.03-3.53,0.04-5.23-0.28c-1.95-0.37-3.05-1.64-2.93-3.61c0.18-2.99,0.69-5.96,1.16-8.92c0.45-2.81,1.02-5.59,1.53-8.39
		C742.37,288.31,742.32,288.09,742.3,287.79z"/>
	<path class="st1" d="M736.26,270.32c-1.87,9.73-3.66,19.13-5.49,28.53c-0.63,3.23-0.58,3.38,2.57,4.16
		c-0.39,2.05-0.75,4.13-1.21,6.19c-0.05,0.23-0.58,0.49-0.9,0.5c-1.15,0.05-2.32,0.1-3.46-0.04c-3.46-0.44-5.07-2.33-4.59-5.9
		c0.62-4.61,1.56-9.17,2.42-13.74c1.15-6.08,2.39-12.14,3.51-18.22c0.2-1.08,0.56-1.53,1.67-1.49
		C732.54,270.36,734.29,270.32,736.26,270.32z"/>
	<path class="st1" d="M766.06,281.42c-0.51,2.79-0.97,5.42-1.47,8.04c-1.17,6.12-2.4,12.23-3.53,18.36
		c-0.23,1.25-0.69,1.77-2.01,1.67c-1.63-0.12-3.27-0.03-5.17-0.03c1.82-9.47,3.59-18.72,5.38-28.04
		C761.51,281.42,763.63,281.42,766.06,281.42z"/>
	<path class="st1" d="M768.11,269.92c-0.49,2.51-0.92,4.75-1.36,7.01c-2.26,0-4.38,0-6.78,0c0.42-2.25,0.79-4.37,1.25-6.48
		c0.05-0.23,0.58-0.5,0.9-0.51C764.03,269.89,765.94,269.92,768.11,269.92z"/>
</g>
<g>
	<path class="st2" d="M823.53,23.78c-0.58,0.89-0.85,1.34-1.15,1.76C767.2,102.1,712.01,178.66,656.84,255.23
		c-1.77,2.46-4.05,3.71-7.16,3.71c-20.5,0-40.99,0.08-61.49,0.11c-1.33,0-2.66-0.22-4.31-0.37c0.7-1,1.18-1.69,1.68-2.38
		c24.81-34.24,49.69-68.41,74.39-102.73c13.96-19.4,27.49-39.11,41.43-58.53c16.16-22.5,32.57-44.81,48.82-67.25
		c2.1-2.9,4.71-4.18,8.28-4.16c19.25,0.11,38.5,0.11,57.75,0.15C818.5,23.79,820.77,23.78,823.53,23.78z"/>
	<path class="st2" d="M759.29,170.46c21.55,29.75,43.02,59.39,64.68,89.3c-2.05,0.1-3.77,0.26-5.48,0.27
		c-20.06,0.04-40.12,0.01-60.19,0.12c-3.66,0.02-6.22-1.31-8.34-4.29c-7.67-10.77-15.49-21.44-23.26-32.14
		c-2.18-3.01-2.2-4.58-0.04-7.61c10.5-14.75,21.01-29.49,31.52-44.22C758.5,171.43,758.85,171.02,759.29,170.46z"/>
	<path class="st2" d="M583.31,24.06c1.93-0.11,3.47-0.26,5.02-0.27c20.28-0.05,40.56-0.07,60.84-0.14c3.3-0.01,5.78,1.26,7.72,3.96
		c8.41,11.71,16.9,23.37,25.36,35.05c0.19,0.26,0.36,0.54,0.6,0.92c-11.74,16.53-23.5,33.08-35.4,49.83
		C626.05,83.6,604.8,54,583.31,24.06z"/>
</g>
</svg>
