<?xml version="1.0" encoding="utf-8"?>
<!-- Generator: Adobe Illustrator 26.1.0, SVG Export Plug-In . SVG Version: 6.00 Build 0)  -->
<svg version="1.1" id="Layer_1" xmlns="http://www.w3.org/2000/svg" xmlns:xlink="http://www.w3.org/1999/xlink" x="0px" y="0px"
	 viewBox="0 0 383.6 386.1" style="enable-background:new 0 0 383.6 386.1;" xml:space="preserve">
<style type="text/css">
	.st0{fill:#5874A5;}
	.st1{fill:#3E4E68;}
	.st2{fill:#425370;}
	.st3{fill:#3B4B64;}
	.st4{fill:#41526E;}
	.st5{fill:#546F9E;}
	.st6{fill:#40516D;}
	.st7{fill:#455777;}
	.st8{fill:#55709F;}
	.st9{fill:#5C79AF;}
	.st10{fill:#4E658E;}
	.st11{fill:#4B5F85;}
	.st12{fill:#526A97;}
	.st13{fill:#526A96;}
	.st14{fill:#5975A7;}
	.st15{fill:#475A7C;}
	.st16{fill:#4C6087;}
	.st17{fill:#475A7B;}
	.st18{fill:#3D4D67;}
	.st19{fill:#485B7B;}
	.st20{fill:#445777;}
	.st21{fill:#5B78AD;}
	.st22{fill:#435675;}
	.st23{fill:#485C80;}
	.st24{fill:#465979;}
	.st25{fill:#435471;}
	.st26{fill:#5C79AD;}
	.st27{fill:#5570A0;}
	.st28{fill:#A8B8D1;}
	.st29{fill:#445573;}
	.st30{fill:#485B7D;}
	.st31{fill:#354052;}
	.st32{fill:#617FB8;}
	.st33{fill:#556F9D;}
</style>
<path class="st0" d="M167.8,373.5c-7.2-4.5-14.4-9.1-21.7-14.1c0.1-0.9,0.1-1.6,0.5-1.9c4.1-4,8.2-7.9,12.2-12
	c3.3-3.4,6.5-6.8,11.8-6.9c1.9,0.4,2.9,3.3,5.4,1.4c0.3-0.3,0.3-0.5,0.2-1c0.1-2.5,0.2-4.7,0.5-6.9c0.5-0.1,0.9-0.2,1.1-0.4
	c5.3-5.5,10.5-11.1,15.9-16.5c11-11.1,22.1-22.2,33.1-33.3c8.6-8.6,17.2-17.1,25.9-25.7c8.9-8.8,17.9-17.4,26.8-26.2
	c12-12,23.8-24.2,35.7-36.3c1.9-2,3.7-4,5.1-5.5c-1.8-1.6-3.1-2.8-4.1-4c4.8-0.1,9.4-0.1,13.9-0.1c5,0,5-0.3,6.4-5
	c1.5-5.1,3.6-10,5.6-15c1.9-2.2,3.3-4.5,5.1-6.4c9.7-9.8,19.4-19.5,29.2-29.1c0.9-0.9,2.5-1.1,3.7-1.6c-0.4,3.3-0.6,6.6-1.1,9.9
	c-1,5.8-2.2,11.6-3.6,17.8c-2.4,1.7-4.7,2.9-6.4,4.6c-16.8,16.6-33.4,33.4-50.1,50c-1.8,1.8-2.9,4.6-6.3,4.4c-0.4,0-0.9,1.1-1.3,1.6
	c-2.2,0-4.4,0.3-6.6,0.1c-2.1-0.3-3.1,0.8-3.8,2.3c-8.2,17.4-19.3,32.8-31.4,47.6c-17.3,21.2-37.4,39.4-59.8,55.1
	c-1,0.7-1.8,2.4-1.9,3.7c-0.3,3.5-0.1,7.1-0.4,11c-4.8,4.8-9.4,9.3-13.9,13.7C184.9,357.1,176.3,365.3,167.8,373.5z"/>
<path class="st1" d="M65.1,178.9c-1.8-5.5-3.7-11.1-5.4-17c1.2-0.9,2.5-1.3,3.3-2.1c6.3-6.2,12.6-12.5,18.9-18.9
	c9.2-9.3,18.4-18.7,27.7-28c10-10,20-19.9,30-29.9c1.8-1.8,3.3-3.8,5-5.8c8.2-4.2,16.3-8.3,24.5-12.5c1.8-0.9,3.8-1.6,5.4-2.8
	c0.9-0.6,1.4-2.1,1.6-3.3c0.3-2.4,0.1-4.8,0.4-7.6c1.7-1.3,3.3-2.1,4.6-3.3c12.2-12.1,24.4-24.2,36.6-36.3c2.8,1.4,5.6,2.9,8.5,4.8
	c-0.9,1.4-1.8,2.3-2.7,3.2c-23.7,23.4-47.4,46.8-71,70.4c-8.9,8.9-17.5,18-26.4,26.9c-1.6,1.6-2.3,3.1-1.4,5.3
	c-0.5,0.3-0.8,0.4-1.4,0.3c-0.7,0.3-1.3,0.8-2.1,1.4c-10.8,5.5-21.4,10.8-32.1,16.1c-2.1,1-2.6,2.3-2,4.4c1.1,3.8,2,7.6,2.8,11.4
	c-5.2,4.8-10.2,9.7-15.3,14.4C71.6,173.1,68.3,176,65.1,178.9z"/>
<path class="st2" d="M69,95.9c-11,5.6-21.9,11.2-33,16.6c-2.6,1.3-3.2,2.8-2.8,5.4c1,6.2,1.9,12.4,2.6,18.9c-1.9,0.7-4,0.6-5.1,1.7
	c-5.5,5.1-10.7,10.6-16,15.8c-1.2,1.1-2.6,1.9-3.5,2.5c-0.8,1.2-1.4,2.1-2,3c-1.4-6.3-2.8-12.6-4.2-19c-0.6-3-1.1-6-1.4-9.2
	c1.7-0.9,3.5-1.3,4.6-2.4c15.1-14.7,30.1-29.5,45.1-44.4c7.9-7.8,15.9-15.7,23.6-23.7c1.1-1.2,1.4-3.2,2-4.9
	c12.3-6.2,24.7-12.4,37-18.6c2.1-1.1,4.2-2.2,6.5-3c-0.1,1.6,0,3.2-0.8,4.2c-2.1,2.7-4.4,5.2-6.8,7.6c-14.3,14.1-28.6,28.3-43,42.3
	C69.8,90.8,68.6,92.9,69,95.9z"/>
<path class="st3" d="M144.4,77.3c-1.4,1.9-3,3.9-4.7,5.7c-10,10-20,19.9-30,29.9c-9.3,9.3-18.4,18.7-27.7,28
	c-6.3,6.3-12.5,12.6-18.9,18.9c-0.8,0.8-2.1,1.2-3.4,1.9c-3-11.7-5.7-23.5-8.5-35.2c-0.6-2.3,0.7-3.1,2.4-3.9
	c18.8-9.3,37.6-18.7,56.4-28.1C121.4,88.7,132.8,83,144.4,77.3z"/>
<path class="st4" d="M65.1,179.1c3.2-3.2,6.4-6,9.6-9c5.1-4.8,10-9.6,15.4-14.2c2.9,7.6,5.5,14.9,8,22.5c-1.7,2-3.1,4-4.8,5.7
	c-8.1,8.2-16.4,16.4-24.5,24.6c-0.8,0.8-1.6,1.7-2.5,2.7c1.1,0.8,1.8,1.3,2.6,1.8c-0.9,0.7-1.8,0.6-2.6,0.8
	c-0.5,0.1-0.8,0.7-1.2,1.2c-0.1,0.1-0.3,0.2-0.4,0c-0.9-0.3-2.3-0.7-2.5-0.3c-0.5,0.7-0.3,1.8-0.4,2.3c-1.6,1.1-3.4,2-4.7,3.3
	c-4.6,4.4-9,9.1-13.6,13.5c-1.5,1.4-3.4,2.3-5.1,3.4c-3.7-7.8-7.5-15.6-11-23.7c1.6-1,3.3-1.4,4.4-2.5c8.9-8.4,17.6-16.8,26.3-25.3
	c0.3-0.3,0.3-1,0.4-1.5c1.1,0,2.2-0.1,3.3-0.1C66.9,184.2,66.9,184.2,65.1,179.1z"/>
<path class="st5" d="M331.1,232.7c4.4,0,8.8-0.1,13.2-0.1c2.4,0,3.4,0.8,2,3.2c-1.1,1.9-2.1,3.8-3.5,5.9c-2.2-1.4-3.6-1-5.4,0.8
	c-4.6,4.7-9.6,9.1-14.3,13.8c-7.7,7.7-15.2,15.7-22.9,23.4c-24,24.1-48.1,48.1-72.2,72.1c-0.9,0.9-2.5,1.1-3.7,1.6
	c0-6.9-0.2-13.7,0-20.5c0-1.2,0.9-2.8,1.9-3.5c16.1-11.8,30.9-25,45-39.6c1,0.5,1.6,1.1,2.6,2.2c2.3-2.5,4.6-5,7-7.4
	c15.9-15.9,31.8-31.8,47.7-47.8C329.6,235.7,330.2,234.1,331.1,232.7z"/>
<path class="st6" d="M124.8,121.9c-1-2.1-0.3-3.6,1.3-5.2c8.9-8.9,17.5-18.1,26.4-26.9c23.6-23.5,47.3-46.9,71-70.4
	c0.9-0.9,1.8-1.8,2.8-3c3.8,1.5,7.7,3.3,11.7,5.4c-0.4,1.8-0.7,3.5-1.7,4.6c-4.9,5.1-9.9,10-14.9,15c-1.5,1.5-2.3,4-5.3,4.1
	c-2.8-1.3-5.3-2.6-8.6-4.2c0,7,0,12.9-0.2,18.8c-1.8,0.8-3.8,1.4-5,2.6c-8,7.8-16,15.7-23.9,23.6c-3.5,3.5-7.1,7.1-9.9,9.9
	c1,1.4,1.6,2.1,1.9,3c-5.2,2.7-10.2,5.2-15.2,7.7C145.1,112,134.9,117,124.8,121.9 M164.2,100.1c0.3,0,0.5,0,0.8,0
	c0-0.1,0-0.3,0-0.3C164.7,99.8,164.4,99.8,164.2,100.1z"/>
<path class="st1" d="M78.8,56.2c-0.4,1.6-0.7,3.7-1.8,4.8c-7.8,8-15.7,15.9-23.6,23.7c-15,14.8-30,29.6-45.1,44.4
	c-1.1,1.1-2.9,1.5-4.5,2.1c-0.2-0.6-0.3-1.1-0.1-1.9c0.3-0.4,0.4-0.5,0.6-0.6c-0.3-0.1-0.7-0.1-1-0.2c-0.8-6.7-1.7-13.5-2.4-20.2
	c-0.4-3.4-0.4-6.8-0.7-10.2c-0.2-1.9,0.4-2.9,2.2-3.8c23.9-11.8,47.7-23.8,71.9-35.5c0.5,0.4,0.7,0.7,1,1.1c0-0.6,0-1.1,0-1.7
	C76.2,57.5,77.4,56.9,78.8,56.2z"/>
<path class="st7" d="M69.3,95.9c-0.7-3,0.5-5.1,2.6-7.2c14.4-14,28.7-28.1,43-42.3c2.4-2.4,4.8-4.9,6.8-7.6c0.8-1,0.7-2.6,1-4.2
	c9.5-5.1,18.9-10,28.5-14.6c1.5-0.7,3.9,0.3,5.9,0.9c-0.9,1.9-1.6,3.5-2.8,4.7c-12.8,13.2-25.8,26.2-38.6,39.4
	c-2.8,2.9-5.3,6.2-7.9,9.2c-0.5,0.5-1.2,1.1-1.8,1.2c-2.3,0.2-2.9,1.6-2.9,3.6c0,0-0.1-0.1-0.2-0.1c-0.3,0.2-0.5,0.3-0.6,0.5
	C91.3,84.9,80.4,90.4,69.3,95.9z"/>
<path class="st0" d="M224.4,353.6c1.3-0.8,2.9-1,3.8-1.9c24.1-24,48.2-48,72.2-72.1c7.7-7.7,15.2-15.7,22.9-23.4
	c4.7-4.7,9.6-9.1,14.3-13.8c1.7-1.7,3.1-2.1,5.2-0.6c-3.6,6.6-7.3,13.2-11.6,19.8c-1.8,0.9-3.4,1.4-4.6,2.4
	c-2.7,2.4-5.2,5.1-7.7,7.6c-28.2,28.2-56.3,56.3-84.5,84.5c-2.5,2.5-5,5.2-7.5,7.8c-0.8-1.3-2.1-2.5-2.4-4
	C224,358.1,224.3,356,224.4,353.6z"/>
<path class="st8" d="M380.1,126.9c-1.3,0.8-2.9,1-3.8,1.9c-9.8,9.6-19.5,19.3-29.2,29.1c-1.9,1.9-3.3,4.2-5.2,6.1
	c-0.2-1.3-0.3-2.5-0.1-3.5c1.2-5.3,2.7-10.5,3.7-15.8c1.7-8.9,3.2-17.9,5-26.8c1.7-0.6,3.4-0.9,4.5-2c7.8-7.3,15.4-14.7,23.1-22.1
	c0.4-0.4,0.4-1.2,0.6-1.8c3.9,0.8,5.2,3.1,4.7,7.1c-1,7.6-1.4,15.4-2.2,23C381.2,123.7,380.6,125.2,380.1,126.9z"/>
<path class="st9" d="M167.9,373.6c8.4-8.4,16.9-16.5,25.5-24.8c4.6-4.4,9.1-8.9,13.9-13.4c0.3,13.6,0.3,27.3,0.3,41
	c0,0.9-1,2.2-1.8,2.7c-4.1,2.3-8.3,4.5-12.6,6.6c-0.9,0.4-2.4,0.2-3.3-0.2C182.5,381.7,175.3,377.8,167.9,373.6z"/>
<path class="st10" d="M322.5,63.9c0.1,0,0.2,0.1,0.6,0.3c0.5,0.3,0.7,0.4,0.9,0.5c9.1,4.6,18.1,9.2,27.4,14.2c0.2,4-2.8,5.5-4.8,7.6
	c-5.2,5.4-10.4,10.9-15.8,16.3C319,97,307.4,91.2,296.1,85.2c2.4,0.3,4.7,0.7,7.2,1.2c0.5-1.1,0.7-2.4,1.4-3.2
	c4.8-4.8,9.8-9.4,14.5-14.2C320.5,67.5,321.4,65.6,322.5,63.9z"/>
<path class="st11" d="M322.4,63.8c-1,1.9-1.8,3.8-3.2,5.2c-4.8,4.8-9.7,9.4-14.5,14.2c-0.8,0.8-1,2.1-1.4,3.2
	c-2.4-0.5-4.7-0.9-7.4-1.2c-7.3-3.4-14.2-6.9-21.1-10.6c0.6-0.7,1.3-1.1,1.8-1.6c5.1-5.4,10-10.8,15.2-16.1c2-2,3.4-4,3-6.9
	c6.9,3.5,13.7,7.1,20.6,10.5C317.5,61.6,319.9,62.6,322.4,63.8z"/>
<path class="st12" d="M331,103c5.2-5.5,10.4-11,15.6-16.4c2.1-2.2,5.1-3.7,5.1-7.6c1.8,0.5,3.6,1.1,5.4,2
	c7.2,3.6,14.3,7.2,21.6,10.9c0,0.7,0,1.5-0.4,1.9c-7.7,7.4-15.3,14.8-23.1,22.1c-1.1,1-2.8,1.3-4.5,1.7c-0.3-1-0.2-1.7-0.1-2.5
	c0.2-0.2,0.2-0.4,0-0.8c-0.1-0.7-0.2-1.2-0.4-1.8c-0.5-0.3-0.8-0.5-1.5-0.6C342.6,108.9,336.8,105.9,331,103z"/>
<path class="st10" d="M105.3,326.3c-6.8-6.9-13.6-13.9-20.2-21.1c0.7-0.5,1.4-0.6,1.8-1c5.8-6,11.5-12,17.2-18.1
	c0.9-0.9,1.4-2.1,2.3-3.1c6.2,6.5,12.3,12.9,18.3,19.6c0.3,3-0.1,5.4-2.6,7.2c-1.2,0.8-2.1,2.2-3.2,3.3
	C114.4,317.4,109.8,321.8,105.3,326.3z"/>
<path class="st13" d="M105.4,326.5c4.5-4.6,9-9,13.6-13.5c1.1-1.1,1.9-2.4,3.2-3.3c2.5-1.7,3-4.1,2.8-7.1c0.9,0.5,1.5,1.1,2.2,1.8
	c5.9,5.2,11.8,10.4,17.5,15.8c0.8,0.7,1.7,1.3,2.7,1.9c0,0,0,0,0,0.2c-1.4,1.3-2.8,2.3-4,3.5c-5.2,5.3-10.3,10.7-15.4,16.1
	c-0.7,0.7-1,1.9-1.4,2.9c0,0-0.3-0.1-0.4-0.5c-0.6-0.5-1-0.7-1.4-0.9C118.3,337.8,111.9,332.3,105.4,326.5z"/>
<path class="st14" d="M311.5,215.5c0.1-0.6,0.6-1.7,1-1.7c3.3,0.2,4.5-2.6,6.3-4.4c16.7-16.7,33.4-33.4,50.1-50
	c1.7-1.7,4-2.9,6.3-4.3c-1.6,7.1-3.4,14.3-5.7,21.7c-2,0.7-3.8,1-5,2c-3.9,3.5-7.6,7.2-11.3,11c-7.1,7.2-14.3,14.4-21.2,21.8
	c-1.4,1.5-2.5,2.9-4.8,2.6c-0.7-0.1-1.4,0.9-2.1,1.3C320.7,215.5,316.2,215.5,311.5,215.5z"/>
<path class="st8" d="M126.6,345c0.4-1.1,0.7-2.3,1.4-3c5.1-5.4,10.2-10.8,15.4-16.1c1.2-1.2,2.7-2.2,4.3-3.4
	c7.8,5.2,15.3,10.7,22.8,16.1c-5.2,0.2-8.4,3.6-11.6,7c-4,4.1-8.1,8-12.2,12c-0.3,0.3-0.4,1-0.6,1.7
	C139.5,354.7,133.1,349.9,126.6,345z"/>
<path class="st15" d="M294.5,49.8c0.6,3.1-0.9,5.1-2.8,7.1c-5.2,5.2-10.1,10.7-15.2,16.1c-0.5,0.5-1.2,0.9-2,1.6
	c-7.3-3.4-14.3-6.9-21.2-10.7c1.3-2,2.4-3.9,3.8-5.6c5.3-6.4,13-10.7,16.5-18.7c5.7,2.9,11.5,5.9,17.2,8.8
	C291.9,48.8,293.2,49.2,294.5,49.8z"/>
<path class="st3" d="M176.4,38.3c-0.1-9.7-0.2-19.4-0.2-29.1c0-0.9,1-2.2,1.8-2.7c4.3-2.4,8.8-4.6,13.3-6.6c1-0.5,2.6-0.4,3.6,0.1
	c5.1,2.5,10.2,5.2,15.2,8.3c-0.7,1-1.4,1.5-2,2.1c-9.5,9.7-18.9,19.5-28.3,29.2C178.4,39,177.4,38.6,176.4,38.3z"/>
<path class="st16" d="M106.3,282.9c-0.7,1.1-1.3,2.3-2.1,3.2c-5.7,6.1-11.4,12.1-17.2,18.1c-0.4,0.4-1.1,0.5-1.9,0.8
	c-5.9-6.7-11.4-13.5-16.8-20.4c2.6-0.5,5.1,0.5,7.2-1.9c5.4-6,11-11.8,16.7-17.5c4.4,5.4,8.6,10.7,12.8,16.1
	c0.1,0.3,0.3,0.4,0.6,0.5C105.9,282.3,106.1,282.6,106.3,282.9z"/>
<path class="st17" d="M103.3,78.9c-0.2-1.9,0.4-3.4,2.7-3.5c0.6,0,1.3-0.6,1.8-1.2c2.7-3,5.1-6.3,7.9-9.2
	c12.8-13.2,25.8-26.2,38.6-39.4c1.2-1.2,1.9-2.9,3-4.6c0.7,1.3,1.9,2.8,1.9,4.4c0.2,4.5,0.1,9-0.2,13.8c-1.4,0.9-2.8,1.2-3.6,2
	c-6.7,6.5-13.2,13.1-19.8,19.7c-0.7,0.7-1,1.6-1.5,2.4c-0.3,0.2-0.6,0.4-1.3,0.5c-2-0.8-2.7-0.2-2.7,1.5
	C121.2,69.9,112.4,74.4,103.3,78.9z"/>
<path class="st18" d="M58.1,184.3c0.2,0.6,0.2,1.3-0.1,1.6c-8.7,8.5-17.5,17-26.3,25.3c-1.1,1.1-2.8,1.5-4.5,2.3
	c-3.6-8.6-6.9-17.2-10.1-25.8c-0.3-0.8-0.2-1.7,0.1-2.7c0.8-0.3,1.1-0.5,1.4-0.6C31.7,184.3,44.8,184.3,58.1,184.3z"/>
<path class="st19" d="M9.3,160c0.6-1.1,1.1-2,2-3.2c0.9-0.6,2.4-1.4,3.5-2.5c5.4-5.2,10.6-10.7,16-15.8c1.1-1,3.2-0.9,5.1-1.4
	c2.6,10,4.8,20.1,7.2,30.3c-10.6,0-21.2,0-32.1,0C10.4,165.1,9.9,162.6,9.3,160z"/>
<path class="st20" d="M273.4,39.3c-3.3,8.2-11,12.5-16.3,18.9c-1.4,1.7-2.5,3.5-3.9,5.6c-0.2,0.2-0.4,0.1-0.4-0.1
	c-0.7-0.4-1.3-0.6-2.2-0.9c-5.4-2.7-10.5-5.3-15.7-8.2c1.4-2.4,2.4-4.9,4.1-6.7c4.2-4.6,8.9-8.8,13.1-13.4c1.1-1.2,1.4-3.2,2-4.8
	C260.5,32.8,266.9,36,273.4,39.3z"/>
<path class="st21" d="M325.4,215.5c0.4-0.5,1.2-1.5,1.8-1.4c2.3,0.3,3.4-1.1,4.8-2.6c7-7.4,14.1-14.6,21.2-21.8
	c3.7-3.7,7.4-7.5,11.3-11c1.1-1,3-1.2,4.8-1.8c-4.1,12.4-8.5,24.8-13.1,37.1c-0.3,0.8-2.1,1.5-3.2,1.5
	C344,215.6,334.9,215.6,325.4,215.5z"/>
<path class="st22" d="M38.3,237.6c1.7-1.3,3.6-2.2,5.1-3.6c4.6-4.4,9-9.1,13.6-13.5c1.3-1.3,3.1-2.2,4.7-3.3
	c0.1-0.5-0.1-1.6,0.4-2.3c0.2-0.3,1.6,0,2.3,0.5c-2.7,1.7-1.1,3.4-0.4,4.8c2.3,4.4,4.7,8.8,6.8,13.3c-6.1,6.4-12.1,12.7-18,19
	c-1.3,1.4-2.7,2.6-4,4C45.4,250.2,41.9,244,38.3,237.6z"/>
<path class="st12" d="M330.8,232.6c-0.5,1.4-1.1,3-2.3,4.1c-15.9,16-31.8,31.8-47.7,47.8c-2.4,2.4-4.6,4.9-7,7.4
	c-1-1.1-1.6-1.7-2.4-2.3c1.4-2,3.1-3.9,5.1-6c0.5-0.4,0.6-0.6,0.7-0.8c4.1-5.3,8.5-10.4,12.3-15.8c7.4-10.6,14.5-21.3,21.5-32.1
	c1.2-1.8,2.3-2.6,4.5-2.5C320.5,232.7,325.5,232.6,330.8,232.6z"/>
<path class="st23" d="M91.9,265c-5.5,5.9-11.2,11.6-16.5,17.6c-2.1,2.4-4.6,1.5-7.3,1.7c-3.3-4.1-6.3-8.2-9.2-12.8
	c0.9-1.3,1.6-2.3,2.5-3.1c6.6-6.2,12.1-13.6,20.4-17.8c3.2,4.5,6.1,8.8,9.1,13.3c0.1,0.3,0.3,0.5,0.6,0.7
	C91.8,264.8,91.9,264.9,91.9,265z"/>
<path class="st24" d="M81.7,250.5c-8.1,4.4-13.7,11.8-20.2,18c-0.9,0.8-1.6,1.8-2.5,2.9c-0.7-0.4-1.2-1.1-1.8-2.1
	c-0.2-0.6-0.4-0.7-0.6-0.8c-2.5-3.9-5-7.8-7.6-11.9c1.3-1.5,2.6-2.8,3.9-4.2c6-6.3,11.9-12.6,18.2-18.9
	C74.9,239.2,78.3,244.8,81.7,250.5z"/>
<path class="st14" d="M226.9,364.2c2.3-2.8,4.8-5.4,7.3-8c28.2-28.2,56.3-56.4,84.5-84.5c2.6-2.6,5-5.2,7.7-7.6
	c1.1-1,2.7-1.6,4.4-2.3c-0.5,1.3-1.3,2.6-2.3,3.8c-0.6,0-1,0.1-1.3,0.1c0.2,0.5,0.4,0.9,0.5,1.4c-2.2,3.3-4.4,6.5-7,9.9
	c-1.6,0.7-2.9,1.1-3.8,2c-4.2,3.9-8.3,7.8-12.3,11.8c-9.3,9.4-18.4,18.8-27.7,28.2c-10.5,10.6-21.2,21.2-31.7,31.9
	c-0.6,0.6-0.2,2.1-0.3,3.2c-4.6,3.3-9.1,6.7-13.9,9.8C230.1,364.6,228.5,364.3,226.9,364.2z"/>
<path class="st25" d="M253.9,29.5c-0.5,1.8-0.7,3.8-1.8,5c-4.2,4.6-8.9,8.8-13.1,13.4c-1.7,1.8-2.7,4.3-4.3,6.7
	c-6.3-2.9-12.3-5.9-18.4-9c2.7-0.1,3.5-2.5,5.1-4.1c5-5,10-9.9,14.9-15c1-1.1,1.3-2.8,1.9-4.5c3.6,1.6,7.3,3.6,10.9,5.4
	C250.6,28.2,252.2,28.7,253.9,29.5z"/>
<path class="st26" d="M245.2,354c-0.1-1-0.5-2.6,0.1-3.2c10.5-10.7,21.1-21.2,31.7-31.9c9.3-9.4,18.4-18.8,27.7-28.2
	c4-4,8.1-7.9,12.3-11.8c0.9-0.9,2.3-1.3,3.7-1.8c-8.3,10.7-16.5,21.6-25.4,31.9C280.4,326,263.6,340.7,245.2,354z"/>
<path class="st18" d="M176.3,38.6c1.1,0.1,2.1,0.5,3.5,1c9.4-9.7,18.8-19.4,28.3-29.2c0.6-0.6,1.3-1.1,2.1-1.9
	c2.5,0.8,4.8,1.7,7.3,2.8c-12,12.3-24.2,24.4-36.4,36.5c-1.2,1.2-2.8,2-4.5,3C176.4,46.9,176.3,42.9,176.3,38.6z"/>
<path class="st23" d="M134.3,63.4c0.3-0.8,0.6-1.7,1.3-2.4c6.6-6.6,13.1-13.2,19.8-19.7c0.8-0.8,2.2-1.1,3.6-1.7
	c1.7,7.8,0,13.5-8.7,16.2C144.7,57.4,139.7,60.8,134.3,63.4z"/>
<path class="st23" d="M130.3,65.4c-0.3-1.7,0.5-2.3,2.3-1.5C132,64.5,131.2,65,130.3,65.4z"/>
<path class="st0" d="M327.9,267c-0.3-0.4-0.5-0.8-0.7-1.3c0.3-0.1,0.7-0.1,1.2,0C328.4,266.3,328.2,266.6,327.9,267z"/>
<path class="st2" d="M74.9,58.2c0.2,0.6,0.2,1.1,0.2,1.7c-0.2-0.3-0.5-0.6-0.8-1.1C74.4,58.3,74.5,58.2,74.9,58.2z"/>
<path class="st4" d="M18.4,184.3c-0.1,0.2-0.5,0.4-1,0.5C17.5,184.6,17.9,184.4,18.4,184.3z"/>
<path class="st2" d="M3.2,128.7c0.3-0.1,0.6,0,1,0c-0.1,0.1-0.3,0.2-0.6,0.4C3.4,129.1,3.2,128.9,3.2,128.7z"/>
<path class="st8" d="M124.8,343.6c0.3,0,0.7,0.2,1.2,0.6C125.7,344.2,125.3,344,124.8,343.6z"/>
<path class="st23" d="M56.6,268.6c0.2-0.1,0.3,0.1,0.5,0.4C57,269.1,56.8,268.9,56.6,268.6z"/>
<path class="st5" d="M277.1,283c0,0.1-0.1,0.3-0.4,0.6C276.7,283.5,276.8,283.2,277.1,283z"/>
<path class="st17" d="M102.4,79.3c0-0.1,0.2-0.3,0.5-0.5C102.9,79,102.7,79.2,102.4,79.3z"/>
<path class="st11" d="M323.9,64.6c-0.1,0.1-0.3,0-0.7-0.2C323.4,64.3,323.6,64.3,323.9,64.6z"/>
<path class="st27" d="M193.1,293.7c6.7-5.1,13.7-10,20.1-15.5c6.1-5.2,12.1-10.8,17.4-16.8c9.7-11.1,19.2-22.3,28-34.1
	c9.1-12.3,16.3-25.9,22.5-39.9c1.1-2.4,2.3-3.2,4.9-3.2c9.7,0.2,19.4,0.1,29.5,0.1c1.6,1.2,2.9,2.4,4.7,4c-1.4,1.5-3.2,3.6-5.1,5.5
	c-11.9,12.1-23.7,24.3-35.7,36.3c-8.8,8.8-17.9,17.4-26.8,26.2c-8.7,8.5-17.3,17.1-25.9,25.7c-11.1,11.1-22.1,22.1-33.1,33.3
	c-5.4,5.4-10.6,11-15.9,16.5c-0.2,0.2-0.6,0.3-1.1,0.4c-0.3-6.6-0.3-13.3-0.1-20.3c1.1-0.7,2-0.9,2.6-1.5c3.9-4,7.7-8.2,11.7-12
	C192.5,297,193.4,295.7,193.1,293.7z"/>
<path class="st28" d="M176,340c-0.2-0.1-0.1-0.3,0.1-0.6C176.3,339.5,176.3,339.7,176,340z"/>
<path class="st6" d="M123.4,122.4c-0.4,0.6-1,0.9-1.7,1.3C122,123.2,122.6,122.7,123.4,122.4z"/>
<path class="st22" d="M98.1,178.4c5.9,11.4,11.6,22.9,17.5,34.4c0.9,1.7,0.3,2.5-1.4,2.7c-0.4,0.1-0.9,0-1.3,0
	c-15.1,0-30.2,0-45.3,0c-0.6,0-1.3-0.2-2.2-0.4c0.1-0.5,0.5-1.1,0.9-1.2c0.8-0.2,1.7-0.1,2.6-0.8c-0.8-0.5-1.5-1.1-2.6-1.8
	c0.9-1,1.7-1.9,2.5-2.7c8.2-8.2,16.4-16.3,24.5-24.6C95,182.4,96.5,180.5,98.1,178.4z"/>
<path class="st29" d="M207.2,60.1c0.3,10.5,0.3,21,0.4,31.5c0,2.7-1.3,3-3.4,2c-0.5-0.2-1-0.4-1.5-0.7c-6.5-4.9-12.7-4.8-19.4-0.1
	c-3.7,2.6-8.2,4.3-12.6,6.4c-0.8-0.7-1.3-1.4-2.3-2.9c2.8-2.8,6.3-6.4,9.9-9.9c7.9-7.9,15.9-15.8,23.9-23.6
	C203.5,61.5,205.4,61,207.2,60.1z"/>
<path class="st29" d="M164.2,99.9c0.3-0.2,0.5-0.2,0.8-0.1c0,0,0,0.2,0,0.3C164.7,100.1,164.4,100.1,164.2,99.9z"/>
<path class="st8" d="M350.2,112.5c-0.3,0-0.6-0.1-1.1-0.5C349.3,112,349.7,112.2,350.2,112.5z"/>
<path class="st8" d="M350.5,115.1c-0.1,0-0.1-0.3,0-0.4C350.8,114.7,350.8,114.9,350.5,115.1z"/>
<path class="st8" d="M144.7,320.2c1,0.4,1.8,1,2.6,1.7C146.5,321.5,145.5,320.9,144.7,320.2z"/>
<path class="st10" d="M104.9,281.3c0.2-0.1,0.3,0,0.4,0.3C105.2,281.6,105.1,281.5,104.9,281.3z"/>
<path class="st15" d="M252.7,63.6c-0.5,0-1.1-0.2-1.8-0.6C251.4,63,252.1,63.2,252.7,63.6z"/>
<path class="st16" d="M91,263.9c0.2-0.1,0.3,0,0.5,0.4C91.3,264.4,91.2,264.2,91,263.9z"/>
<path class="st30" d="M307.9,110.5c7.7,3.8,15.4,7.5,23,11.4c0.9,0.5,1.7,2.4,1.4,3.4c-3,13.3-6,26.5-9.3,39.7
	c-0.3,1-2.1,2.3-3.2,2.4c-9,0.2-18.1,0.1-27.2,0.1c-2.8,0-3.1-1.1-2.3-3.6c2.2-6.9,4.1-13.9,6.3-20.9c0.7-2.3,0-3.4-2.1-4.3
	c-3.5-1.6-6.9-3.4-10.4-5.5c0.3-0.7,0.8-1.4,1-1.3c2.3,0.7,3.6-0.4,5.1-2c3.9-4,8.1-7.7,11.9-11.8
	C304.3,115.9,306,113.1,307.9,110.5z"/>
<path class="st31" d="M163,195.2c4.7-9.3,9.4-18.4,13.8-27.6c1.5-3.1,3.4-4.6,6.9-4.2c2.2,0.2,4.4,0,7.2,0c-0.6,1.9-0.8,3.3-1.4,4.4
	c-9.4,17.8-18.9,35.5-28.3,53.2c-1.1,2.1-2.6,3-5,2.9c-2.7-0.2-5.5-0.2-8.3,0c-2.6,0.2-3.8-0.6-4.1-3.4c-1.8-14.3-3.8-28.7-5.8-43
	c-0.5-3.5-0.9-7-1.4-10.5c-0.5-2.8,0.7-3.8,3.4-3.7c11.2,0.3,8.6-1.4,9.9,9c1.6,12.8,2.9,25.6,5,38.6
	C157.6,205.8,160.2,200.6,163,195.2z"/>
<path class="st20" d="M307.7,110.3c-1.8,2.8-3.4,5.6-5.6,7.9c-3.8,4.1-8,7.8-11.9,11.8c-1.5,1.5-2.8,2.7-5.1,2
	c-0.3-0.1-0.8,0.6-1.2,1.1c0,0.2-0.4,0.2-0.5-0.1c-0.3-0.6-0.4-0.9-0.6-1.2c-0.1,0.3-0.2,0.6-0.3,0.9c-0.8-0.3-1.6-0.6-2.5-1.4
	c-0.3-3-1.7-1.7-2.9-1.3c-9.3-4.6-18.6-9.2-27.9-13.7c-0.3-0.1-0.6-0.3-1-0.9c0.4-2.2,0.4-4.3,1.5-5.6c2.5-3,5.6-5.6,8.3-8.4
	c3.4-3.5,6.7-7.1,10.1-10.7c8.1,4.1,16.1,8.4,24.2,12.4C297.3,105.5,302.5,107.8,307.7,110.3z"/>
<path class="st13" d="M122,274.4c-6.6-8.1-13.3-16.1-19.7-24.4c-3.4-4.3-6.3-9-9.3-13.7c-1.9-2.9-1.3-3.8,2.2-3.9
	c10.3,0,20.5-0.1,30.8,0.1c1.3,0,2.9,0.8,3.8,1.8c5,6,9.9,12.1,14.7,18.5c-1.8,2-3.5,3.8-5.2,5.5c-4.5,4.7-9,9.4-13.6,13.9
	C124.8,273.4,123.3,273.8,122,274.4z"/>
<path class="st25" d="M267.9,90.4c-3.2,3.7-6.5,7.3-9.9,10.9c-2.7,2.8-5.8,5.4-8.3,8.4c-1.1,1.3-1.1,3.4-1.6,5.4
	c-7.4-3.3-14.8-6.9-22.1-10.6c-0.9-0.5-1.6-2.1-1.7-3.2c-0.1-9.6-0.1-19.2-0.1-28.8c0-3.2,0.8-3.6,3.9-2.1
	c12.1,6.1,24.2,12.3,36.4,18.4C265.6,89.4,266.7,89.8,267.9,90.4z"/>
<path class="st32" d="M231.5,194.7c-6.5,9-12.8,18-19.4,26.7c-0.9,1.3-3,2.3-4.6,2.4c-4.9,0.3-9.8,0.1-15.6,0.1
	c3.7-5.2,7-9.8,10.4-14.4c10.6-14.8,21.3-29.5,31.9-44.3c1.3-1.9,2.7-2.5,4.9-2.5c4.8,0.1,9.7,0,15.3,0
	C246.6,173.7,239.1,184.1,231.5,194.7z"/>
<path class="st33" d="M122.1,274.6c1.2-0.9,2.7-1.3,3.6-2.2c4.6-4.6,9.1-9.3,13.6-13.9c1.7-1.7,3.4-3.5,5.2-5.3
	c4.8,4.6,9.3,9.2,13.8,14c0.7,0.7,0.9,2.2,0.9,3.3c0.1,11.3,0.1,22.5,0,33.8c0,1.1-0.5,2.2-0.8,3.3c-1.2-0.5-2.6-0.7-3.4-1.5
	C144.1,295.8,133.2,285.3,122.1,274.6z"/>
<path class="st32" d="M246.2,224c-0.4,0-0.5,0-0.7,0c-10.3,0-10.3,0-15.6-8.6c-0.5-0.8-0.7-2.5-0.3-3.2c2.5-3.9,5.3-7.6,8.1-11.6
	c5.6,7.8,11,15.3,16.9,23.4C251.4,224,249,224,246.2,224z"/>
<path class="st32" d="M193.9,165.4c-0.5-0.8-0.9-1.4-1.7-2.6c6.1,0,11.7-0.1,17.2,0.1c0.9,0,2,1.2,2.7,2.1c1.9,2.5,5,5.2,5.1,7.8
	c0.1,2.6-3.1,5.3-4.8,7.9c-1.1,1.6-2.3,3.2-3.7,5.2C203.7,179,198.9,172.3,193.9,165.4z"/>
<path class="st33" d="M192.9,293.7c0.5,2-0.4,3.2-1.9,4.6c-4.1,3.8-7.8,8-11.7,12c-0.6,0.6-1.5,0.8-2.5,1.2
	c-0.3-8.2-0.5-16.3-0.5-24.5c0-0.8,0.4-1.9,1-2.2c0.5-0.3,1.6,0.2,2.2,0.6c3.5,2.5,6.9,5.2,10.4,7.6
	C190.6,293.6,191.7,293.6,192.9,293.7z"/>
<path class="st30" d="M277.3,130.1c1-0.6,2.5-1.9,2.6,1C279.1,130.9,278.3,130.6,277.3,130.1z"/>
<path class="st30" d="M282.7,132.8c0-0.4,0.1-0.7,0.2-1c0.1,0.3,0.3,0.6,0.4,1.1c0,0.2-0.3,0.2-0.3,0.2S282.7,132.9,282.7,132.8z"/>
</svg>
