<svg version="1.1" id="Layer_1" xmlns="http://www.w3.org/2000/svg" xmlns:xlink="http://www.w3.org/1999/xlink" x="0px" y="0px"
	 width="100%" viewBox="0 0 603 603" enable-background="new 0 0 603 603" xml:space="preserve">
<path fill="#FEFFFF" opacity="0" stroke="none" 
	d="
M604.000000,221.000000 
	C604.000000,349.000000 604.000000,476.500000 604.000000,604.000000 
	C403.000000,604.000000 202.000000,604.000000 1.000000,604.000000 
	C1.000000,403.000000 1.000000,202.000000 1.000000,1.000000 
	C202.000000,1.000000 403.000000,1.000000 604.000000,1.000000 
	C604.000000,74.166664 604.000000,147.333328 604.000000,221.000000 
M496.123444,422.784637 
	C499.426666,417.861511 502.729858,412.938385 506.510284,407.738525 
	C506.720093,407.239502 506.929901,406.740479 507.706299,405.866425 
	C508.849304,403.927795 509.992310,401.989136 511.700958,399.682220 
	C517.403992,389.784607 523.107056,379.887024 529.180298,369.380707 
	C530.753967,366.481049 532.276733,363.552338 533.914185,360.689148 
	C535.975037,357.085571 534.475220,355.859222 530.871643,355.896454 
	C524.246094,355.964905 517.620422,356.021545 510.069275,355.927582 
	C502.575256,355.908905 495.075714,356.052521 487.589844,355.796173 
	C484.340179,355.684937 482.651581,356.850342 480.873566,359.565796 
	C470.245758,375.796936 459.541199,391.985931 448.456421,407.906372 
	C442.708221,416.162262 436.125488,423.837128 429.402863,432.000946 
	C429.211304,432.315857 429.019745,432.630768 428.235077,433.230835 
	C425.759552,436.130646 423.284027,439.030426 420.210510,442.204315 
	C399.555969,464.028503 377.316162,484.054230 353.023102,501.787384 
	C351.545532,502.865936 350.209259,505.223663 350.173828,507.013214 
	C349.969727,517.334351 350.177124,527.663574 350.084747,538.903809 
	C350.077301,541.987549 349.604248,545.168030 350.217865,548.122803 
	C350.664398,550.273010 352.545990,552.125122 354.276703,554.736023 
	C356.331329,554.499023 358.827148,554.928711 360.365112,553.911011 
	C367.475159,549.206055 374.318878,544.098572 381.900146,538.952515 
	C409.219025,518.968140 434.559418,496.705750 456.877350,471.271362 
	C470.437164,455.818085 482.760559,439.279938 496.123444,422.784637 
M98.172722,411.789673 
	C98.949318,412.784729 99.725914,413.779816 100.692764,415.402191 
	C105.188622,421.598480 109.684471,427.794739 114.366348,434.623444 
	C122.802917,444.788696 131.239487,454.953949 139.925247,465.761383 
	C150.155945,476.235229 160.386642,486.709076 170.947495,497.785980 
	C180.602402,506.202026 190.257294,514.618103 200.240479,523.632629 
	C200.844894,523.931580 201.449310,524.230469 202.210648,524.936768 
	C202.210648,524.936768 202.608902,525.115479 202.835709,525.642212 
	C212.533813,532.827759 222.231903,540.013306 232.259750,547.777039 
	C243.127136,554.627197 253.994537,561.477356 265.261627,568.857483 
	C276.189667,574.790405 287.084167,580.786987 298.088196,586.575439 
	C299.463776,587.299072 301.729553,587.574585 303.052063,586.944153 
	C309.491241,583.874756 315.816406,580.543701 322.018707,577.018066 
	C323.329620,576.272827 324.769440,574.328918 324.776794,572.930054 
	C324.885071,552.284973 324.761200,531.638611 324.850647,510.069458 
	C324.869720,504.737610 324.633728,499.386139 325.041382,494.084167 
	C325.191284,492.134583 326.369904,489.600281 327.911438,488.519135 
	C361.656097,464.851501 391.905792,437.395325 417.987823,405.463013 
	C436.199738,383.166077 452.956940,359.866486 465.268951,333.652740 
	C466.315491,331.424500 467.921478,329.860840 471.030579,330.242859 
	C474.298706,330.644379 477.670837,330.199432 481.920593,330.309937 
	C488.612671,330.249878 495.304718,330.189819 502.921204,330.310272 
	C516.702576,330.319611 530.484863,330.404938 544.264099,330.238678 
	C545.919006,330.218719 548.604370,329.220917 549.046814,328.023804 
	C555.918945,309.431915 562.499512,290.732208 569.642944,271.518829 
	C572.371094,260.679291 575.099243,249.839722 578.113159,238.230484 
	C579.799438,229.460571 581.617859,220.713226 583.120422,211.911942 
	C583.961426,206.985535 584.278870,201.969727 584.992188,196.207626 
	C585.588013,193.992950 586.500488,191.810059 586.726562,189.558258 
	C587.888000,177.989594 588.585449,166.367020 590.036682,154.837738 
	C590.800598,148.768829 588.887695,145.365097 582.442871,143.666885 
	C571.663147,138.246155 560.902161,132.787643 550.090149,127.432022 
	C547.479309,126.138763 544.699829,125.185806 541.337097,123.787979 
	C527.663635,116.826157 513.990173,109.864334 500.049164,102.412048 
	C499.708191,102.309616 499.367188,102.207191 498.590973,101.840057 
	C498.425446,101.802216 498.259918,101.764374 497.649811,101.179878 
	C494.144989,99.640572 490.564941,98.250923 487.149414,96.534004 
	C476.768860,91.315857 466.451843,85.971268 455.638550,80.143936 
	C453.850464,79.454819 451.990601,78.908661 450.286407,78.052528 
	C441.613617,73.695473 432.981110,69.258194 423.893250,64.266541 
	C414.261475,59.536308 404.629669,54.806076 394.411774,49.605408 
	C392.104584,48.636147 389.732666,47.795448 387.502991,46.672279 
	C381.966522,43.883327 376.495026,40.965473 370.270355,37.848652 
	C364.530243,35.188629 358.790100,32.528606 352.853638,29.195704 
	C348.612610,27.024113 344.371552,24.852520 339.674591,22.174433 
	C336.133545,20.747158 332.592499,19.319885 328.784576,17.211756 
	C321.138611,13.217425 313.548035,9.109661 305.798981,5.326447 
	C304.286835,4.588195 301.870728,4.475351 300.365448,5.159970 
	C293.583893,8.244318 286.917969,11.604709 280.364777,15.150917 
	C279.055542,15.859400 277.607697,17.810522 277.600586,19.195702 
	C277.525848,33.797119 277.730682,48.399967 277.617889,63.913338 
	C277.696350,69.943001 277.774811,75.972664 277.620056,82.903893 
	C277.589447,86.548164 277.801758,90.217918 277.423431,93.825729 
	C277.240326,95.571922 276.379547,97.781456 275.065277,98.758850 
	C272.634399,100.566650 269.631744,101.597946 266.888916,102.995171 
	C254.570450,109.270309 242.259613,115.560387 229.225616,121.951111 
	C212.081070,130.496933 194.932526,139.034805 177.792862,147.590393 
	C149.477066,161.724762 121.176552,175.889801 92.838417,189.979202 
	C90.259529,191.261383 88.348953,192.407715 89.180252,195.899353 
	C93.403320,213.637146 97.473007,231.411453 101.777145,249.951096 
	C104.554916,258.299469 107.332695,266.647858 110.095924,275.740265 
	C112.697235,283.028198 112.697197,283.017975 104.938538,283.047852 
	C103.290367,283.054199 101.642601,283.164978 99.068878,283.076355 
	C79.369980,283.116699 59.671078,283.157043 39.356339,283.061188 
	C38.845299,283.349213 38.334259,283.637207 37.184158,284.342926 
	C37.315529,285.619415 37.181751,286.995697 37.618885,288.157104 
	C42.518730,301.175385 47.506500,314.160553 52.702076,327.872192 
	C58.324677,339.634064 63.947277,351.395935 69.771942,363.860321 
	C75.052681,373.171173 80.333420,382.482056 85.829887,392.394196 
	C89.615242,398.271942 93.400597,404.149658 97.238922,410.536865 
	C97.504601,410.744385 97.770279,410.951904 98.172722,411.789673 
M167.168991,124.241776 
	C167.168991,124.241776 167.259171,124.318092 167.965729,124.173782 
	C181.303894,117.429047 194.642044,110.684311 208.638611,103.907745 
	C209.750351,103.250328 210.862076,102.592911 212.560562,101.903709 
	C213.032883,101.577545 213.505188,101.251381 214.694672,100.854958 
	C222.551254,96.931221 230.058884,91.853233 238.344406,89.348259 
	C251.502853,85.370049 254.012863,76.797165 252.033142,64.071198 
	C252.045532,57.264130 252.305252,50.443604 251.935867,43.657314 
	C251.806946,41.288643 250.126312,39.004425 248.742432,36.114006 
	C245.785294,35.828651 242.264511,34.357346 239.962906,35.451244 
	C225.493973,42.327991 211.296249,49.775352 196.288757,57.118866 
	C193.120697,58.741383 189.962280,60.383018 186.783005,61.983269 
	C168.191086,71.341309 149.594299,80.689674 130.316055,90.096611 
	C128.548111,91.074387 126.780159,92.052170 124.562523,92.994270 
	C124.233452,93.030045 123.996910,93.196938 123.158928,93.745613 
	C87.190216,111.693825 51.239269,129.677917 15.217031,147.518036 
	C12.511480,148.857971 11.683037,150.417847 11.954228,153.239594 
	C12.446890,158.365784 12.519238,163.534180 13.067066,168.652847 
	C14.155767,178.825165 15.448151,188.975677 16.779179,199.606171 
	C16.779179,199.606171 17.061216,200.002823 16.988598,200.760742 
	C17.055889,201.516953 17.123182,202.273178 17.083092,203.836746 
	C17.888382,208.384186 18.570019,212.957779 19.524574,217.473663 
	C21.544178,227.028229 23.706274,236.552643 25.917913,246.896591 
	C26.766916,250.518387 27.615917,254.140182 28.431078,257.617615 
	C44.905167,257.617615 60.818970,257.617615 76.845100,257.617615 
	C73.360611,242.207397 69.936234,227.063034 66.403374,211.050720 
	C64.961769,201.717102 63.579288,192.373779 62.050175,183.054520 
	C61.416954,179.195343 62.270912,176.877640 66.245705,174.953552 
	C82.952942,166.866043 99.433868,158.310989 116.711609,149.867386 
	C133.136047,141.557266 149.560471,133.247147 166.527390,124.921783 
	C166.780228,124.689507 167.033081,124.457222 167.168991,124.241776 
z"/>
<path fill="#5874A5" opacity="1.000000" stroke="none" 
	d="
M264.861938,568.327515 
	C253.994537,561.477356 243.127136,554.627197 232.118744,547.113159 
	C232.260803,545.707642 232.343781,544.764038 232.857437,544.255005 
	C238.964645,538.202393 245.286163,532.358948 251.243973,526.164856 
	C256.195740,521.016663 261.014160,515.928772 269.080444,515.727966 
	C271.963135,516.327820 273.474030,520.709778 277.157166,517.819031 
	C277.614197,517.391174 277.630554,517.090332 277.478180,516.340820 
	C277.653625,512.605835 277.757080,509.306458 278.224304,505.972839 
	C279.043884,505.749359 279.622803,505.679169 279.937561,505.353607 
	C287.939819,497.075745 295.818909,488.676697 303.913788,480.490906 
	C320.499207,463.719177 337.172150,447.033630 353.858063,430.361664 
	C366.805664,417.424927 379.786804,404.521118 392.827972,391.678802 
	C406.236664,378.474579 419.879272,365.505188 433.161041,352.175415 
	C451.210449,334.060699 469.024628,315.711426 486.913055,297.436676 
	C489.798798,294.488617 492.546356,291.405273 494.660461,289.133759 
	C491.915863,286.701874 489.956299,284.965576 488.459839,283.152893 
	C495.746643,283.067047 502.570343,283.052521 509.394043,283.049652 
	C516.869263,283.046539 516.885559,282.671448 519.053284,275.546875 
	C521.375000,267.916077 524.416260,260.504211 527.499390,252.948364 
	C530.290344,249.686584 532.406677,246.158890 535.213989,243.312714 
	C549.765869,228.559235 564.451599,213.936493 579.232605,199.412643 
	C580.585266,198.083527 582.941833,197.776077 584.832275,196.994202 
	C584.278870,201.969727 583.961426,206.985535 583.120422,211.911942 
	C581.617859,220.713226 579.799438,229.460571 577.640015,238.680634 
	C574.090881,241.274216 570.622192,243.021652 568.000000,245.622620 
	C542.731018,270.687317 517.613892,295.905090 492.423767,321.049500 
	C489.693054,323.775299 488.015808,328.016266 482.984161,327.675720 
	C482.379974,327.634827 481.662506,329.267426 480.997528,330.124359 
	C477.670837,330.199432 474.298706,330.644379 471.030579,330.242859 
	C467.921478,329.860840 466.315491,331.424500 465.268951,333.652740 
	C452.956940,359.866486 436.199738,383.166077 417.987823,405.463013 
	C391.905792,437.395325 361.656097,464.851501 327.911438,488.519135 
	C326.369904,489.600281 325.191284,492.134583 325.041382,494.084167 
	C324.633728,499.386139 324.869720,504.737610 324.457520,510.604065 
	C317.192291,517.854919 310.357117,524.609436 303.440186,531.279114 
	C290.605988,543.654724 277.724030,555.980835 264.861938,568.327515 
z"/>
<path fill="#3E4E68" opacity="1.000000" stroke="none" 
	d="
M110.110466,274.996246 
	C107.332695,266.647858 104.554916,258.299469 102.037689,249.418976 
	C103.895409,248.004395 105.789421,247.423782 107.042526,246.191437 
	C116.601570,236.790863 126.066933,227.294205 135.501068,217.767654 
	C149.420837,203.711578 163.229095,189.544662 177.198517,175.538330 
	C192.220566,160.476578 207.405441,145.577301 222.440781,130.528732 
	C225.137848,127.829308 227.454010,124.749344 229.946030,121.845078 
	C242.259613,115.560387 254.570450,109.270309 266.888916,102.995171 
	C269.631744,101.597946 272.634399,100.566650 275.065277,98.758850 
	C276.379547,97.781456 277.240326,95.571922 277.423431,93.825729 
	C277.801758,90.217918 277.589447,86.548164 278.100098,82.423782 
	C280.725983,80.456528 283.144836,79.246017 284.975555,77.439484 
	C303.415802,59.242615 321.759613,40.948036 340.130524,22.680933 
	C344.371552,24.852520 348.612610,27.024113 352.897827,29.876385 
	C351.555084,31.944372 350.173950,33.337517 348.780396,34.718143 
	C313.107941,70.059372 277.372925,105.337730 241.792206,140.771057 
	C228.372879,154.134796 215.377975,167.924072 202.022766,181.353455 
	C199.597641,183.792038 198.572647,186.007263 199.898758,189.409027 
	C199.184906,189.823288 198.620438,189.982346 197.861160,189.863525 
	C196.776321,190.333084 195.886292,191.080505 194.686371,192.006516 
	C178.366684,200.225204 162.392044,208.336761 146.316940,216.244049 
	C143.162567,217.795685 142.395020,219.653687 143.348862,222.899734 
	C145.011169,228.556763 146.398376,234.294647 147.558868,240.039185 
	C139.651764,247.327133 132.123642,254.613617 124.508049,261.807556 
	C119.777367,266.276337 114.914185,270.604797 110.110466,274.996246 
z"/>
<path fill="#425370" opacity="1.000000" stroke="none" 
	d="
M115.997635,149.927094 
	C99.433868,158.310989 82.952942,166.866043 66.245705,174.953552 
	C62.270912,176.877640 61.416954,179.195343 62.050175,183.054520 
	C63.579288,192.373779 64.961769,201.717102 65.999344,211.503128 
	C63.128151,212.592163 59.949718,212.466751 58.313641,213.993805 
	C50.044979,221.711487 42.228485,229.911270 34.129028,237.814484 
	C32.389320,239.512039 30.135317,240.682541 28.815792,241.607086 
	C27.589088,243.436356 26.699511,244.762894 25.809933,246.089432 
	C23.706274,236.552643 21.544178,227.028229 19.524574,217.473663 
	C18.570019,212.957779 17.888382,208.384186 17.425760,203.575470 
	C19.981007,202.240723 22.665142,201.650421 24.334970,200.020782 
	C47.084446,177.818817 69.722366,155.502136 92.325500,133.150757 
	C104.287102,121.322380 116.219879,109.460930 127.922394,97.378792 
	C129.641113,95.604324 130.007217,92.519722 130.999146,90.041298 
	C149.594299,80.689674 168.191086,71.341309 186.783005,61.983269 
	C189.962280,60.383018 193.120697,58.741383 196.645737,57.486328 
	C196.521179,59.877392 196.609421,62.343098 195.448364,63.839466 
	C192.305115,67.890495 188.792374,71.692635 185.141266,75.305565 
	C163.610794,96.610947 142.064468,117.901520 120.344803,139.013245 
	C117.063667,142.202545 115.282814,145.422043 115.997635,149.927094 
z"/>
<path fill="#3B4B64" opacity="1.000000" stroke="none" 
	d="
M229.585815,121.898094 
	C227.454010,124.749344 225.137848,127.829308 222.440781,130.528732 
	C207.405441,145.577301 192.220566,160.476578 177.198517,175.538330 
	C163.229095,189.544662 149.420837,203.711578 135.501068,217.767654 
	C126.066933,227.294205 116.601570,236.790863 107.042526,246.191437 
	C105.789421,247.423782 103.895409,248.004395 101.947327,249.029922 
	C97.473007,231.411453 93.403320,213.637146 89.180252,195.899353 
	C88.348953,192.407715 90.259529,191.261383 92.838417,189.979202 
	C121.176552,175.889801 149.477066,161.724762 177.792862,147.590393 
	C194.932526,139.034805 212.081070,130.496933 229.585815,121.898094 
z"/>
<path fill="#41526E" opacity="1.000000" stroke="none" 
	d="
M110.103195,275.368256 
	C114.914185,270.604797 119.777367,266.276337 124.508049,261.807556 
	C132.123642,254.613617 139.651764,247.327133 147.766037,240.352478 
	C152.207611,251.755249 156.099976,262.885254 159.843384,274.314697 
	C157.329529,277.376160 155.124496,280.296478 152.572632,282.873322 
	C140.297195,295.268982 127.924484,307.568298 115.597900,319.913391 
	C114.355240,321.157898 113.190536,322.480255 111.803070,323.966370 
	C113.432320,325.119568 114.584129,325.934814 115.735939,326.750061 
	C114.319511,327.803650 113.016792,327.602539 111.826439,327.881287 
	C111.144852,328.040894 110.645935,328.980621 109.965042,329.757019 
	C109.865318,329.944916 109.478371,330.121765 109.320480,329.751282 
	C107.912849,329.306824 105.901306,328.745392 105.571808,329.260315 
	C104.883911,330.335297 105.084274,331.978699 104.998604,332.712708 
	C102.515068,334.428619 99.911247,335.763214 97.893204,337.706177 
	C90.945076,344.395844 84.307549,351.409515 77.318291,358.054260 
	C75.112160,360.151642 72.173363,361.478363 69.569878,363.157806 
	C63.947277,351.395935 58.324677,339.634064 52.994476,327.472168 
	C55.436745,325.968964 57.986763,325.289154 59.673084,323.695496 
	C73.016090,311.085602 86.204231,298.311584 99.385689,285.532013 
	C99.874207,285.058380 99.804306,284.008820 99.994644,283.227631 
	C101.642601,283.164978 103.290367,283.054199 104.938538,283.047852 
	C112.697197,283.017975 112.697235,283.028198 110.103195,275.368256 
z"/>
<path fill="#546F9E" opacity="1.000000" stroke="none" 
	d="
M510.994812,356.083130 
	C517.620422,356.021545 524.246094,355.964905 530.871643,355.896454 
	C534.475220,355.859222 535.975037,357.085571 533.914185,360.689148 
	C532.276733,363.552338 530.753967,366.481049 528.654114,369.639618 
	C525.299927,367.594604 523.169067,368.150513 520.573853,370.780273 
	C513.579834,377.867096 506.075104,384.448883 499.056915,391.513062 
	C487.463684,403.182251 476.217041,415.196136 464.606079,426.847290 
	C428.427643,463.150848 392.164276,499.369995 355.837036,535.524597 
	C354.489716,536.865540 352.131989,537.191223 350.245117,537.990051 
	C350.177124,527.663574 349.969727,517.334351 350.173828,507.013214 
	C350.209259,505.223663 351.545532,502.865936 353.023102,501.787384 
	C377.316162,484.054230 399.555969,464.028503 420.858032,442.125854 
	C422.366913,442.932892 423.228302,443.818451 424.802124,445.436462 
	C428.337585,441.651337 431.699585,437.841919 435.280884,434.251190 
	C459.224701,410.244354 483.239502,386.308258 507.138458,362.256958 
	C508.806061,360.578735 509.726807,358.158386 510.994812,356.083130 
z"/>
<path fill="#40516D" opacity="1.000000" stroke="none" 
	d="
M200.048141,189.153809 
	C198.572647,186.007263 199.597641,183.792038 202.022766,181.353455 
	C215.377975,167.924072 228.372879,154.134796 241.792206,140.771057 
	C277.372925,105.337730 313.107941,70.059372 348.780396,34.718143 
	C350.173950,33.337517 351.555084,31.944372 352.996002,30.212824 
	C358.790100,32.528606 364.530243,35.188629 370.634216,38.365932 
	C370.050476,41.036961 369.597595,43.661865 368.071289,45.264378 
	C360.749695,52.951622 353.154907,60.379601 345.618805,67.861038 
	C343.298309,70.164726 342.119019,73.917564 337.630859,73.996292 
	C333.476410,72.070724 329.692383,70.148926 324.692383,67.609566 
	C324.692383,78.165199 324.692383,87.076607 324.323975,95.990005 
	C321.537537,97.260994 318.658905,98.054115 316.776306,99.876274 
	C304.644043,111.618980 292.719208,123.576263 280.748352,135.485245 
	C275.402191,140.803772 270.107086,146.173615 265.837891,150.465546 
	C267.377441,152.585342 268.185272,153.697647 268.696198,155.006516 
	C260.869202,159.015228 253.366470,162.882629 245.803253,166.627853 
	C230.568970,174.171707 215.301758,181.649033 200.048141,189.153809 
M259.391510,156.202255 
	C259.785797,156.206436 260.180054,156.210632 260.574371,156.214813 
	C260.575867,156.051193 260.588348,155.745377 260.577271,155.744507 
	C260.184967,155.714233 259.790436,155.712555 259.391510,156.202255 
z"/>
<path fill="#3E4E68" opacity="1.000000" stroke="none" 
	d="
M130.657593,90.068954 
	C130.007217,92.519722 129.641113,95.604324 127.922394,97.378792 
	C116.219879,109.460930 104.287102,121.322380 92.325500,133.150757 
	C69.722366,155.502136 47.084446,177.818817 24.334970,200.020782 
	C22.665142,201.650421 19.981007,202.240723 17.479450,203.171799 
	C17.123182,202.273178 17.055889,201.516953 17.283396,200.353668 
	C17.769367,199.774933 17.960541,199.603271 18.151716,199.431610 
	C17.653269,199.332809 17.154819,199.234009 16.656370,199.135208 
	C15.448151,188.975677 14.155767,178.825165 13.067066,168.652847 
	C12.519238,163.534180 12.446890,158.365784 11.954228,153.239594 
	C11.683037,150.417847 12.511480,148.857971 15.217031,147.518036 
	C51.239269,129.677917 87.190216,111.693825 123.551804,93.943619 
	C124.309502,94.605255 124.674324,95.068893 125.039146,95.532532 
	C125.030167,94.698334 125.021187,93.864143 125.012207,93.029953 
	C126.780159,92.052170 128.548111,91.074387 130.657593,90.068954 
z"/>
<path fill="#455777" opacity="1.000000" stroke="none" 
	d="
M116.354622,149.897247 
	C115.282814,145.422043 117.063667,142.202545 120.344803,139.013245 
	C142.064468,117.901520 163.610794,96.610947 185.141266,75.305565 
	C188.792374,71.692635 192.305115,67.890495 195.448364,63.839466 
	C196.609421,62.343098 196.521179,59.877392 197.005783,57.443924 
	C211.296249,49.775352 225.493973,42.327991 239.962906,35.451244 
	C242.264511,34.357346 245.785294,35.828651 248.794388,36.734306 
	C247.420975,39.546257 246.312073,42.046604 244.521622,43.882133 
	C225.162186,63.728836 205.640869,83.417709 186.301025,103.283340 
	C182.049911,107.650040 178.371109,112.570824 174.350052,117.167610 
	C173.663376,117.952591 172.612961,118.833511 171.670959,118.907158 
	C168.160599,119.181572 167.318893,121.370071 167.259171,124.318092 
	C167.259171,124.318092 167.168991,124.241776 166.960114,124.241104 
	C166.495804,124.472633 166.240356,124.704834 165.984909,124.937027 
	C149.560471,133.247147 133.136047,141.557266 116.354622,149.897247 
z"/>
<path fill="#5874A5" opacity="1.000000" stroke="none" 
	d="
M350.164917,538.446899 
	C352.131989,537.191223 354.489716,536.865540 355.837036,535.524597 
	C392.164276,499.369995 428.427643,463.150848 464.606079,426.847290 
	C476.217041,415.196136 487.463684,403.182251 499.056915,391.513062 
	C506.075104,384.448883 513.579834,377.867096 520.573853,370.780273 
	C523.169067,368.150513 525.299927,367.594604 528.468994,369.943970 
	C523.107056,379.887024 517.403992,389.784607 511.031403,399.852905 
	C508.263428,401.164917 505.857330,401.963623 504.128357,403.516327 
	C500.078705,407.153076 496.351379,411.148987 492.497162,415.003082 
	C450.027130,457.472107 407.552673,499.936707 365.096924,542.419983 
	C361.264923,546.254456 357.554626,550.210571 353.787811,554.110168 
	C352.545990,552.125122 350.664398,550.273010 350.217865,548.122803 
	C349.604248,545.168030 350.077301,541.987549 350.164917,538.446899 
z"/>
<path fill="#55709F" opacity="1.000000" stroke="none" 
	d="
M584.912231,196.600922 
	C582.941833,197.776077 580.585266,198.083527 579.232605,199.412643 
	C564.451599,213.936493 549.765869,228.559235 535.213989,243.312714 
	C532.406677,246.158890 530.290344,249.686584 527.437134,252.521362 
	C527.103699,250.500763 526.950134,248.803879 527.313293,247.225937 
	C529.143799,239.272903 531.404297,231.408279 532.960938,223.405090 
	C535.572632,209.977615 537.766235,196.468826 540.526001,182.996109 
	C543.066162,182.043228 545.669434,181.573669 547.293457,180.056107 
	C559.018860,169.099396 570.560303,157.945251 582.095642,146.787109 
	C582.695618,146.206711 582.708069,145.018860 582.994080,144.113815 
	C588.887695,145.365097 590.800598,148.768829 590.036682,154.837738 
	C588.585449,166.367020 587.888000,177.989594 586.726562,189.558258 
	C586.500488,191.810059 585.588013,193.992950 584.912231,196.600922 
z"/>
<path fill="#5C79AF" opacity="1.000000" stroke="none" 
	d="
M265.061768,568.592529 
	C277.724030,555.980835 290.605988,543.654724 303.440186,531.279114 
	C310.357117,524.609436 317.192291,517.854919 324.378357,511.065643 
	C324.761200,531.638611 324.885071,552.284973 324.776794,572.930054 
	C324.769440,574.328918 323.329620,576.272827 322.018707,577.018066 
	C315.816406,580.543701 309.491241,583.874756 303.052063,586.944153 
	C301.729553,587.574585 299.463776,587.299072 298.088196,586.575439 
	C287.084167,580.786987 276.189667,574.790405 265.061768,568.592529 
z"/>
<path fill="#4E658E" opacity="1.000000" stroke="none" 
	d="
M498.094360,101.726524 
	C498.259918,101.764374 498.425446,101.802216 498.965149,102.186241 
	C499.665161,102.655792 499.990936,102.779152 500.316742,102.902519 
	C513.990173,109.864334 527.663635,116.826157 541.667297,124.315369 
	C542.028625,130.303146 537.509277,132.571014 534.360657,135.842056 
	C526.474976,144.034164 518.671265,152.305161 510.486450,160.412399 
	C492.759216,151.519974 475.380249,142.759659 458.233185,133.728088 
	C461.919312,134.115189 465.373535,134.773529 469.028107,135.470062 
	C469.718018,133.846741 470.008087,131.821457 471.165283,130.660492 
	C478.366455,123.435905 485.865112,116.506836 493.028442,109.246239 
	C495.114563,107.131828 496.427155,104.254257 498.094360,101.726524 
z"/>
<path fill="#4B5F85" opacity="1.000000" stroke="none" 
	d="
M497.872070,101.453201 
	C496.427155,104.254257 495.114563,107.131828 493.028442,109.246239 
	C485.865112,116.506836 478.366455,123.435905 471.165283,130.660492 
	C470.008087,131.821457 469.718018,133.846741 469.028107,135.470062 
	C465.373535,134.773529 461.919312,134.115189 457.873474,133.690460 
	C446.855408,128.614105 436.428986,123.304146 426.055969,117.650101 
	C426.988251,116.626091 427.975586,116.048599 428.729218,115.250412 
	C436.350189,107.178825 443.791748,98.931396 451.598145,91.044586 
	C454.588654,88.023239 456.757538,85.076744 456.110107,80.675919 
	C466.451843,85.971268 476.768860,91.315857 487.149414,96.534004 
	C490.564941,98.250923 494.144989,99.640572 497.872070,101.453201 
z"/>
<path fill="#526A97" opacity="1.000000" stroke="none" 
	d="
M510.834717,160.544525 
	C518.671265,152.305161 526.474976,144.034164 534.360657,135.842056 
	C537.509277,132.571014 542.028625,130.303146 541.997681,124.459564 
	C544.699829,125.185806 547.479309,126.138763 550.090149,127.432022 
	C560.902161,132.787643 571.663147,138.246155 582.718506,143.890350 
	C582.708069,145.018860 582.695618,146.206711 582.095642,146.787109 
	C570.560303,157.945251 559.018860,169.099396 547.293457,180.056107 
	C545.669434,181.573669 543.066162,182.043228 540.463745,182.595215 
	C540.081970,181.118637 540.152649,180.044785 540.356750,178.898682 
	C540.720337,178.558380 540.694458,178.305069 540.367065,177.707062 
	C540.188843,176.636749 540.055969,175.925873 539.798584,174.927399 
	C539.105591,174.431564 538.537231,174.223328 537.611694,173.971649 
	C528.447937,169.466980 519.641296,165.005753 510.834717,160.544525 
z"/>
<path fill="#4E658E" opacity="1.000000" stroke="none" 
	d="
M170.617340,497.182953 
	C160.386642,486.709076 150.155945,476.235229 140.185883,465.404175 
	C141.297882,464.649261 142.361588,464.455444 142.968658,463.823212 
	C151.648331,454.783813 160.297089,445.713989 168.866455,436.570129 
	C170.163177,435.186523 171.021255,433.391785 172.382996,431.947327 
	C181.786530,441.746735 190.889297,451.386047 199.992142,461.458954 
	C200.506088,466.048462 199.843948,469.627197 196.013214,472.250427 
	C194.164169,473.516571 192.870132,475.569489 191.230988,477.170074 
	C184.379120,483.860870 177.491730,490.515259 170.617340,497.182953 
z"/>
<path fill="#526A96" opacity="1.000000" stroke="none" 
	d="
M170.782410,497.484467 
	C177.491730,490.515259 184.379120,483.860870 191.230988,477.170074 
	C192.870132,475.569489 194.164169,473.516571 196.013214,472.250427 
	C199.843948,469.627197 200.506088,466.048462 200.307053,461.596100 
	C201.639374,462.280334 202.622375,463.300018 203.679810,464.235657 
	C212.570068,472.102356 221.473969,479.953705 230.084015,487.987976 
	C231.253082,489.063477 232.711914,489.960724 234.173828,490.863251 
	C234.176926,490.868530 234.188477,490.835693 234.128571,491.219421 
	C232.044998,493.236450 229.834396,494.687164 228.030029,496.534607 
	C220.200745,504.551056 212.449112,512.644958 204.783737,520.818054 
	C203.729706,521.941895 203.317993,523.668152 202.608917,525.115479 
	C202.608902,525.115479 202.210648,524.936768 202.007538,524.388184 
	C201.173676,523.571167 200.542938,523.302673 199.912186,523.034180 
	C190.257294,514.618103 180.602402,506.202026 170.782410,497.484467 
z"/>
<path fill="#5975A7" opacity="1.000000" stroke="none" 
	d="
M481.459045,330.217163 
	C481.662506,329.267426 482.379974,327.634827 482.984161,327.675720 
	C488.015808,328.016266 489.693054,323.775299 492.423767,321.049500 
	C517.613892,295.905090 542.731018,270.687317 568.000000,245.622620 
	C570.622192,243.021652 574.090881,241.274216 577.497070,239.065475 
	C575.099243,249.839722 572.371094,260.679291 568.971436,271.771118 
	C565.994507,272.895203 563.184204,273.205139 561.475403,274.740723 
	C555.608337,280.013275 550.057556,285.646576 544.513672,291.268066 
	C533.773438,302.158539 523.017517,313.037689 512.515076,324.154907 
	C510.362671,326.433319 508.753326,328.512665 505.221313,328.128204 
	C504.230835,328.020416 503.076172,329.421082 501.996826,330.129761 
	C495.304718,330.189819 488.612671,330.249878 481.459045,330.217163 
z"/>
<path fill="#55709F" opacity="1.000000" stroke="none" 
	d="
M202.722321,525.378845 
	C203.317993,523.668152 203.729706,521.941895 204.783737,520.818054 
	C212.449112,512.644958 220.200745,504.551056 228.030029,496.534607 
	C229.834396,494.687164 232.044998,493.236450 234.443344,491.337341 
	C246.142456,499.245972 257.466888,507.420380 268.791290,515.594788 
	C261.014160,515.928772 256.195740,521.016663 251.243973,526.164856 
	C245.286163,532.358948 238.964645,538.202393 232.857437,544.255005 
	C232.343781,544.764038 232.260803,545.707642 231.953873,546.824097 
	C222.231903,540.013306 212.533813,532.827759 202.722321,525.378845 
z"/>
<path fill="#475A7C" opacity="1.000000" stroke="none" 
	d="
M455.874329,80.409927 
	C456.757538,85.076744 454.588654,88.023239 451.598145,91.044586 
	C443.791748,98.931396 436.350189,107.178825 428.729218,115.250412 
	C427.975586,116.048599 426.988251,116.626091 425.697998,117.606773 
	C414.731934,112.553505 404.177307,107.199478 393.770569,101.464905 
	C395.762360,98.406235 397.419861,95.574135 399.483032,93.077232 
	C407.470764,83.410469 419.075531,76.928116 424.334503,64.848984 
	C432.981110,69.258194 441.613617,73.695473 450.286407,78.052528 
	C451.990601,78.908661 453.850464,79.454819 455.874329,80.409927 
z"/>
<path fill="#3B4B64" opacity="1.000000" stroke="none" 
	d="
M277.858337,63.002426 
	C277.730682,48.399967 277.525848,33.797119 277.600586,19.195702 
	C277.607697,17.810522 279.055542,15.859400 280.364777,15.150917 
	C286.917969,11.604709 293.583893,8.244318 300.365448,5.159970 
	C301.870728,4.475351 304.286835,4.588195 305.798981,5.326447 
	C313.548035,9.109661 321.138611,13.217425 328.730591,17.837112 
	C327.662415,19.300285 326.559235,20.051516 325.647308,20.988869 
	C311.352386,35.682682 297.082123,50.400505 282.945465,64.969246 
	C280.849152,64.158760 279.353760,63.580593 277.858337,63.002426 
z"/>
<path fill="#4C6087" opacity="1.000000" stroke="none" 
	d="
M172.082214,431.787231 
	C171.021255,433.391785 170.163177,435.186523 168.866455,436.570129 
	C160.297089,445.713989 151.648331,454.783813 142.968658,463.823212 
	C142.361588,464.455444 141.297882,464.649261 140.061279,465.083069 
	C131.239487,454.953949 122.802917,444.788696 114.710831,434.308289 
	C118.656319,433.627930 122.348022,435.008301 125.547745,431.410950 
	C133.619064,422.336792 142.146545,413.668365 150.733582,405.041260 
	C157.325836,413.217621 163.675705,421.190033 170.102646,429.334869 
	C170.325684,429.724030 170.521088,429.878052 170.980194,430.159851 
	C171.490372,430.829254 171.786301,431.308228 172.082214,431.787231 
z"/>
<path fill="#475A7B" opacity="1.000000" stroke="none" 
	d="
M167.612457,124.245941 
	C167.318893,121.370071 168.160599,119.181572 171.670959,118.907158 
	C172.612961,118.833511 173.663376,117.952591 174.350052,117.167610 
	C178.371109,112.570824 182.049911,107.650040 186.301025,103.283340 
	C205.640869,83.417709 225.162186,63.728836 244.521622,43.882133 
	C246.312073,42.046604 247.420975,39.546257 249.000336,37.018124 
	C250.126312,39.004425 251.806946,41.288643 251.935867,43.657314 
	C252.305252,50.443604 252.045532,57.264130 251.582489,64.535553 
	C249.433334,65.821320 247.371719,66.271835 246.093918,67.522903 
	C236.061890,77.345116 226.160019,87.300911 216.282501,97.279343 
	C215.294632,98.277313 214.735565,99.699760 213.977493,100.925217 
	C213.505188,101.251381 213.032883,101.577545 212.030457,101.660545 
	C209.007004,100.415901 207.912125,101.366180 207.980209,103.939575 
	C194.642044,110.684311 181.303894,117.429047 167.612457,124.245941 
z"/>
<path fill="#3D4D67" opacity="1.000000" stroke="none" 
	d="
M99.531761,283.151978 
	C99.804306,284.008820 99.874207,285.058380 99.385689,285.532013 
	C86.204231,298.311584 73.016090,311.085602 59.673084,323.695496 
	C57.986763,325.289154 55.436745,325.968964 52.878746,327.113403 
	C47.506500,314.160553 42.518730,301.175385 37.618885,288.157104 
	C37.181751,286.995697 37.315529,285.619415 37.803841,284.147156 
	C38.939739,283.700043 39.455956,283.448700 39.972176,283.197327 
	C59.671078,283.157043 79.369980,283.116699 99.531761,283.151978 
z"/>
<path fill="#485B7B" opacity="1.000000" stroke="none" 
	d="
M25.863922,246.493011 
	C26.699511,244.762894 27.589088,243.436356 28.815792,241.607086 
	C30.135317,240.682541 32.389320,239.512039 34.129028,237.814484 
	C42.228485,229.911270 50.044979,221.711487 58.313641,213.993805 
	C59.949718,212.466751 63.128151,212.592163 66.053589,211.937103 
	C69.936234,227.063034 73.360611,242.207397 76.845100,257.617615 
	C60.818970,257.617615 44.905167,257.617615 28.431078,257.617615 
	C27.615917,254.140182 26.766916,250.518387 25.863922,246.493011 
z"/>
<path fill="#445777" opacity="1.000000" stroke="none" 
	d="
M424.113892,64.557762 
	C419.075531,76.928116 407.470764,83.410469 399.483032,93.077232 
	C397.419861,95.574135 395.762360,98.406235 393.586243,101.459625 
	C393.253967,101.834885 392.980011,101.587967 392.920502,101.244789 
	C391.908569,100.597275 390.956146,100.292931 389.642456,99.952835 
	C381.521271,95.942963 373.761383,91.968842 366.042725,87.621483 
	C368.078827,83.976013 369.610779,80.276405 372.159607,77.515625 
	C378.543243,70.601257 385.543152,64.256454 391.942139,57.355206 
	C393.622803,55.542641 394.014374,52.534798 394.997925,50.075851 
	C404.629669,54.806076 414.261475,59.536308 424.113892,64.557762 
z"/>
<path fill="#5B78AD" opacity="1.000000" stroke="none" 
	d="
M502.459015,330.220032 
	C503.076172,329.421082 504.230835,328.020416 505.221313,328.128204 
	C508.753326,328.512665 510.362671,326.433319 512.515076,324.154907 
	C523.017517,313.037689 533.773438,302.158539 544.513672,291.268066 
	C550.057556,285.646576 555.608337,280.013275 561.475403,274.740723 
	C563.184204,273.205139 565.994507,272.895203 568.723694,272.040466 
	C562.499512,290.732208 555.918945,309.431915 549.046814,328.023804 
	C548.604370,329.220917 545.919006,330.218719 544.264099,330.238678 
	C530.484863,330.404938 516.702576,330.319611 502.459015,330.220032 
z"/>
<path fill="#435675" opacity="1.000000" stroke="none" 
	d="
M69.670914,363.509064 
	C72.173363,361.478363 75.112160,360.151642 77.318291,358.054260 
	C84.307549,351.409515 90.945076,344.395844 97.893204,337.706177 
	C99.911247,335.763214 102.515068,334.428619 104.998604,332.712708 
	C105.084274,331.978699 104.883911,330.335297 105.571808,329.260315 
	C105.901306,328.745392 107.912849,329.306824 109.076874,329.972900 
	C104.964905,332.470947 107.481155,335.061981 108.539474,337.144592 
	C111.931862,343.820374 115.574753,350.368805 118.834160,357.147675 
	C109.582832,366.824371 100.630341,376.331207 91.644302,385.806213 
	C89.696075,387.860413 87.627373,389.800354 85.614166,391.792908 
	C80.333420,382.482056 75.052681,373.171173 69.670914,363.509064 
z"/>
<path fill="#526A97" opacity="1.000000" stroke="none" 
	d="
M510.532043,356.005371 
	C509.726807,358.158386 508.806061,360.578735 507.138458,362.256958 
	C483.239502,386.308258 459.224701,410.244354 435.280884,434.251190 
	C431.699585,437.841919 428.337585,441.651337 424.802124,445.436462 
	C423.228302,443.818451 422.366913,442.932892 421.156982,441.988800 
	C423.284027,439.030426 425.759552,436.130646 428.794434,432.979980 
	C429.542450,432.410919 429.731140,432.092682 429.919800,431.774475 
	C436.125488,423.837128 442.708221,416.162262 448.456421,407.906372 
	C459.541199,391.985931 470.245758,375.796936 480.873566,359.565796 
	C482.651581,356.850342 484.340179,355.684937 487.589844,355.796173 
	C495.075714,356.052521 502.575256,355.908905 510.532043,356.005371 
z"/>
<path fill="#485C80" opacity="1.000000" stroke="none" 
	d="
M150.491211,404.837341 
	C142.146545,413.668365 133.619064,422.336792 125.547745,431.410950 
	C122.348022,435.008301 118.656319,433.627930 114.617813,433.992065 
	C109.684471,427.794739 105.188622,421.598480 100.803741,414.733582 
	C102.117119,412.702698 103.220070,411.234711 104.537781,409.994995 
	C114.444435,400.674927 122.756729,389.555298 135.322693,383.086487 
	C140.083237,389.819244 144.554474,396.369751 149.095291,403.141663 
	C149.316299,403.648651 149.541565,403.852905 150.042297,404.161682 
	C150.326385,404.510895 150.408798,404.674133 150.491211,404.837341 
z"/>
<path fill="#465979" opacity="1.000000" stroke="none" 
	d="
M135.033386,382.904266 
	C122.756729,389.555298 114.444435,400.674927 104.537781,409.994995 
	C103.220070,411.234711 102.117119,412.702698 100.708618,414.419922 
	C99.725914,413.779816 98.949318,412.784729 98.025284,411.241333 
	C97.725555,410.389679 97.494926,410.167786 97.185951,410.027405 
	C93.400597,404.149658 89.615242,398.271942 85.722031,392.093567 
	C87.627373,389.800354 89.696075,387.860413 91.644302,385.806213 
	C100.630341,376.331207 109.582832,366.824371 119.113724,357.338684 
	C124.797867,365.867035 129.915619,374.385651 135.033386,382.904266 
z"/>
<path fill="#5975A7" opacity="1.000000" stroke="none" 
	d="
M354.032257,554.423096 
	C357.554626,550.210571 361.264923,546.254456 365.096924,542.419983 
	C407.552673,499.936707 450.027130,457.472107 492.497162,415.003082 
	C496.351379,411.148987 500.078705,407.153076 504.128357,403.516327 
	C505.857330,401.963623 508.263428,401.164917 510.748596,400.037048 
	C509.992310,401.989136 508.849304,403.927795 507.252350,405.792664 
	C506.274139,405.797119 505.749878,405.875305 505.225616,405.953491 
	C505.494751,406.640747 505.763916,407.327972 506.033081,408.015259 
	C502.729858,412.938385 499.426666,417.861511 495.484619,422.960083 
	C493.117767,424.054382 491.099426,424.659973 489.711456,425.945953 
	C483.427979,431.767639 477.203735,437.663879 471.176971,443.749939 
	C457.204224,457.860138 443.417175,472.154236 429.444702,486.264740 
	C413.566528,502.299744 397.531189,518.179443 381.721100,534.280762 
	C380.836334,535.181763 381.379486,537.484802 381.258026,539.135315 
	C374.318878,544.098572 367.475159,549.206055 360.365112,553.911011 
	C358.827148,554.928711 356.331329,554.499023 354.032257,554.423096 
z"/>
<path fill="#435471" opacity="1.000000" stroke="none" 
	d="
M394.704834,49.840633 
	C394.014374,52.534798 393.622803,55.542641 391.942139,57.355206 
	C385.543152,64.256454 378.543243,70.601257 372.159607,77.515625 
	C369.610779,80.276405 368.078827,83.976013 365.682526,87.583511 
	C356.187836,83.279205 347.094543,78.639633 338.001282,74.000061 
	C342.119019,73.917564 343.298309,70.164726 345.618805,67.861038 
	C353.154907,60.379601 360.749695,52.951622 368.071289,45.264378 
	C369.597595,43.661865 370.050476,41.036961 370.997742,38.491306 
	C376.495026,40.965473 381.966522,43.883327 387.502991,46.672279 
	C389.732666,47.795448 392.104584,48.636147 394.704834,49.840633 
z"/>
<path fill="#5C79AD" opacity="1.000000" stroke="none" 
	d="
M381.579102,539.043945 
	C381.379486,537.484802 380.836334,535.181763 381.721100,534.280762 
	C397.531189,518.179443 413.566528,502.299744 429.444702,486.264740 
	C443.417175,472.154236 457.204224,457.860138 471.176971,443.749939 
	C477.203735,437.663879 483.427979,431.767639 489.711456,425.945953 
	C491.099426,424.659973 493.117767,424.054382 495.242615,423.182312 
	C482.760559,439.279938 470.437164,455.818085 456.877350,471.271362 
	C434.559418,496.705750 409.219025,518.968140 381.579102,539.043945 
z"/>
<path fill="#3D4D67" opacity="1.000000" stroke="none" 
	d="
M277.738098,63.457882 
	C279.353760,63.580593 280.849152,64.158760 282.945465,64.969246 
	C297.082123,50.400505 311.352386,35.682682 325.647308,20.988869 
	C326.559235,20.051516 327.662415,19.300285 328.864044,18.177540 
	C332.592499,19.319885 336.133545,20.747158 339.902557,22.427685 
	C321.759613,40.948036 303.415802,59.242615 284.975555,77.439484 
	C283.144836,79.246017 280.725983,80.456528 278.216675,81.973007 
	C277.774811,75.972664 277.696350,69.943001 277.738098,63.457882 
z"/>
<path fill="#485C80" opacity="1.000000" stroke="none" 
	d="
M214.336090,100.890083 
	C214.735565,99.699760 215.294632,98.277313 216.282501,97.279343 
	C226.160019,87.300911 236.061890,77.345116 246.093918,67.522903 
	C247.371719,66.271835 249.433334,65.821320 251.505768,64.998505 
	C254.012863,76.797165 251.502853,85.370049 238.344406,89.348259 
	C230.058884,91.853233 222.551254,96.931221 214.336090,100.890083 
z"/>
<path fill="#485C80" opacity="1.000000" stroke="none" 
	d="
M208.309418,103.923660 
	C207.912125,101.366180 209.007004,100.415901 211.737076,101.676437 
	C210.862076,102.592911 209.750351,103.250328 208.309418,103.923660 
z"/>
<path fill="#5874A5" opacity="1.000000" stroke="none" 
	d="
M506.271667,407.876892 
	C505.763916,407.327972 505.494751,406.640747 505.225616,405.953491 
	C505.749878,405.875305 506.274139,405.797119 506.969055,405.980194 
	C506.929901,406.740479 506.720093,407.239502 506.271667,407.876892 
z"/>
<path fill="#425370" opacity="1.000000" stroke="none" 
	d="
M124.787369,93.012108 
	C125.021187,93.864143 125.030167,94.698334 125.039146,95.532532 
	C124.674324,95.068893 124.309502,94.605255 123.898781,93.818283 
	C123.996910,93.196938 124.233452,93.030045 124.787369,93.012108 
z"/>
<path fill="#41526E" opacity="1.000000" stroke="none" 
	d="
M39.664253,283.129272 
	C39.455956,283.448700 38.939739,283.700043 38.123371,283.938293 
	C38.334259,283.637207 38.845299,283.349213 39.664253,283.129272 
z"/>
<path fill="#425370" opacity="1.000000" stroke="none" 
	d="
M16.717773,199.370697 
	C17.154819,199.234009 17.653269,199.332809 18.151716,199.431610 
	C17.960541,199.603271 17.769367,199.774933 17.319706,199.974716 
	C17.061216,200.002823 16.779179,199.606171 16.717773,199.370697 
z"/>
<path fill="#55709F" opacity="1.000000" stroke="none" 
	d="
M200.076324,523.333374 
	C200.542938,523.302673 201.173676,523.571167 201.929077,524.184570 
	C201.449310,524.230469 200.844894,523.931580 200.076324,523.333374 
z"/>
<path fill="#485C80" opacity="1.000000" stroke="none" 
	d="
M97.212433,410.282135 
	C97.494926,410.167786 97.725555,410.389679 97.956894,410.926208 
	C97.770279,410.951904 97.504601,410.744385 97.212433,410.282135 
z"/>
<path fill="#546F9E" opacity="1.000000" stroke="none" 
	d="
M429.661316,431.887695 
	C429.731140,432.092682 429.542450,432.410919 429.091003,432.837402 
	C429.019745,432.630768 429.211304,432.315857 429.661316,431.887695 
z"/>
<path fill="#475A7B" opacity="1.000000" stroke="none" 
	d="
M166.256149,124.929413 
	C166.240356,124.704834 166.495804,124.472633 167.018585,124.232681 
	C167.033081,124.457222 166.780228,124.689507 166.256149,124.929413 
z"/>
<path fill="#4B5F85" opacity="1.000000" stroke="none" 
	d="
M500.182953,102.657288 
	C499.990936,102.779152 499.665161,102.655792 499.182800,102.318588 
	C499.367188,102.207191 499.708191,102.309616 500.182953,102.657288 
z"/>
<path fill="#FEFEFE" opacity="1.000000" stroke="none" 
	d="
M337.630859,73.996292 
	C347.094543,78.639633 356.187836,83.279205 365.641296,87.956757 
	C373.761383,91.968842 381.521271,95.942963 389.847565,100.231628 
	C391.269318,100.893448 392.124664,101.240707 392.980011,101.587967 
	C392.980011,101.587967 393.253967,101.834885 393.438293,101.840164 
	C404.177307,107.199478 414.731934,112.553505 425.644592,117.950859 
	C436.428986,123.304146 446.855408,128.614105 457.641541,133.961700 
	C475.380249,142.759659 492.759216,151.519974 510.486450,160.412399 
	C519.641296,165.005753 528.447937,169.466980 537.796509,174.200500 
	C538.866638,174.720200 539.394897,174.967590 539.923096,175.214981 
	C540.055969,175.925873 540.188843,176.636749 540.250488,177.918640 
	C540.179260,178.489655 540.223267,178.970917 540.223267,178.970917 
	C540.152649,180.044785 540.081970,181.118637 540.073547,182.593384 
	C537.766235,196.468826 535.572632,209.977615 532.960938,223.405090 
	C531.404297,231.408279 529.143799,239.272903 527.313293,247.225937 
	C526.950134,248.803879 527.103699,250.500763 527.081177,252.569809 
	C524.416260,260.504211 521.375000,267.916077 519.053284,275.546875 
	C516.885559,282.671448 516.869263,283.046539 509.394043,283.049652 
	C502.570343,283.052521 495.746643,283.067047 487.996216,283.080811 
	C472.409760,283.069214 457.747559,283.195618 443.091949,282.942596 
	C439.165192,282.874786 437.234222,284.088013 435.637756,287.733154 
	C426.357269,308.922333 415.536560,329.400818 401.746552,347.934296 
	C388.527496,365.700439 374.145782,382.647308 359.577484,399.345612 
	C351.599884,408.489594 342.548157,416.805847 333.308350,424.709229 
	C323.624237,432.992615 313.135284,440.335052 302.660034,448.152252 
	C300.884460,447.902649 299.168152,447.987488 298.056885,447.208801 
	C292.749756,443.489929 287.640259,439.490112 282.374176,435.710419 
	C281.440308,435.040131 279.748627,434.325562 279.032990,434.732483 
	C278.157410,435.230347 277.504730,436.889618 277.507721,438.044739 
	C277.539734,450.364532 277.720856,462.683929 277.765747,475.464294 
	C277.733826,485.952484 277.797180,495.979767 277.860535,506.007080 
	C277.757080,509.306458 277.653625,512.605835 277.332458,516.504517 
	C276.968140,517.371582 276.915619,517.656677 276.957153,517.959167 
	C273.474030,520.709778 271.963135,516.327820 269.080444,515.727966 
	C257.466888,507.420380 246.142456,499.245972 234.503265,490.953613 
	C234.188477,490.835693 234.176926,490.868530 234.040863,490.578644 
	C232.727783,489.462402 231.550766,488.636047 230.373764,487.809662 
	C221.473969,479.953705 212.570068,472.102356 203.679810,464.235657 
	C202.622375,463.300018 201.639374,462.280334 200.306976,461.162476 
	C190.889297,451.386047 181.786530,441.746735 172.382996,431.947327 
	C171.786301,431.308228 171.490372,430.829254 170.957306,429.952942 
	C170.566025,429.287842 170.334488,429.156799 170.025558,429.162445 
	C163.675705,421.190033 157.325836,413.217621 150.733582,405.041260 
	C150.408798,404.674133 150.326385,404.510895 150.014923,403.920959 
	C149.606049,403.205536 149.352661,403.014191 149.025711,402.920288 
	C144.554474,396.369751 140.083237,389.819244 135.322693,383.086487 
	C129.915619,374.385651 124.797867,365.867035 119.400543,357.157410 
	C115.574753,350.368805 111.931862,343.820374 108.539474,337.144592 
	C107.481155,335.061981 104.964905,332.470947 109.234772,330.343414 
	C109.478371,330.121765 109.865318,329.944916 110.327583,329.941528 
	C111.755898,330.097565 112.721848,330.395325 113.688019,330.396057 
	C136.461182,330.413757 159.234375,330.399689 182.007553,330.389679 
	C182.672195,330.389374 183.348450,330.445343 183.999405,330.345428 
	C186.539337,329.955688 187.462296,328.826172 186.158691,326.238220 
	C177.399460,308.849274 168.706680,291.426849 159.992355,274.015289 
	C156.099976,262.885254 152.207611,251.755249 148.108063,240.311935 
	C146.398376,234.294647 145.011169,228.556763 143.348862,222.899734 
	C142.395020,219.653687 143.162567,217.795685 146.316940,216.244049 
	C162.392044,208.336761 178.366684,200.225204 194.993317,191.999878 
	C196.425430,191.256897 197.240692,190.699142 198.055969,190.141388 
	C198.620438,189.982346 199.184906,189.823288 199.898758,189.409027 
	C215.301758,181.649033 230.568970,174.171707 245.803253,166.627853 
	C253.366470,162.882629 260.869202,159.015228 269.041168,154.967041 
	C275.915619,151.593353 282.628571,149.138931 288.275513,145.168427 
	C298.392303,138.055130 307.848450,138.008041 317.582794,145.353287 
	C318.235077,145.845474 319.048737,146.129883 319.800354,146.483246 
	C322.993225,147.984451 324.932037,147.492172 324.906616,143.444077 
	C324.807343,127.625565 324.759399,111.806725 324.692383,95.988014 
	C324.692383,87.076607 324.692383,78.165199 324.692383,67.609566 
	C329.692383,70.148926 333.476410,72.070724 337.630859,73.996292 
M229.967392,386.276703 
	C222.558243,377.080963 215.244354,367.805084 207.645737,358.768677 
	C206.385941,357.270508 203.894150,356.034576 201.952240,356.006195 
	C186.476624,355.779816 170.996292,355.855896 155.517471,355.880035 
	C150.186905,355.888367 149.332245,357.269745 152.198944,361.686890 
	C156.716492,368.647827 161.095367,375.744446 166.174988,382.285004 
	C175.836899,394.725739 185.952621,406.814026 196.184769,419.649170 
	C212.648071,435.401611 229.079987,451.187225 245.636429,466.841125 
	C246.911774,468.046997 249.063965,468.325470 250.808624,469.034973 
	C251.223495,467.367767 251.989929,465.702484 251.998962,464.033081 
	C252.090897,447.048187 252.096329,430.062439 252.005234,413.077545 
	C251.996140,411.381897 251.714218,409.203522 250.667816,408.076447 
	C243.995941,400.890015 237.074158,393.935577 229.967392,386.276703 
M415.585449,141.336227 
	C413.962372,140.640411 412.296173,140.030014 410.722809,139.235718 
	C392.437836,130.004868 374.175385,120.729347 355.886200,111.506851 
	C351.322357,109.205475 350.089844,109.854172 350.069122,114.665512 
	C350.006866,129.125320 349.971375,143.586685 350.166565,158.044189 
	C350.188690,159.680557 351.327240,162.108414 352.656830,162.793381 
	C363.649384,168.456421 374.809113,173.794922 386.311829,179.797821 
	C386.766083,179.998917 387.228027,180.184387 387.673462,180.403397 
	C401.708618,187.303558 415.742126,194.206955 430.128235,201.697250 
	C431.385284,202.209854 432.642303,202.722458 434.269897,203.780792 
	C435.487213,204.266022 436.704529,204.751236 438.105286,205.683441 
	C438.105286,205.683441 438.520416,205.930573 438.520416,205.930573 
	C438.520416,205.930573 439.002899,205.905457 439.412445,206.187180 
	C439.412445,206.187180 439.897583,206.295441 440.344055,206.814255 
	C445.529205,209.409637 450.638977,212.173721 455.927917,214.536804 
	C459.075989,215.943359 460.140411,217.574493 459.043030,221.063446 
	C455.757965,231.507889 452.893372,242.084717 449.599152,252.526093 
	C448.448853,256.172180 448.904694,257.903229 453.083221,257.881470 
	C466.729828,257.810455 480.379669,257.976807 494.020386,257.684143 
	C495.695648,257.648224 498.423706,255.656967 498.805908,254.112137 
	C503.725708,234.226593 508.380005,214.273575 512.832642,194.277756 
	C513.175049,192.739868 511.986023,189.801926 510.674652,189.120773 
	C499.233246,183.177963 487.601501,177.601562 475.628387,171.348053 
	C467.912598,167.774857 460.108246,164.379425 452.501251,160.587936 
	C440.278992,154.496048 428.187256,148.142365 415.585449,141.336227 
M257.435852,299.957520 
	C253.478271,307.789612 249.520691,315.621704 245.563095,323.453796 
	C242.339905,303.819153 240.425323,284.514191 237.999573,265.273682 
	C236.031036,249.659744 239.969452,252.189301 223.062561,251.741837 
	C218.979248,251.633759 217.188477,253.056458 217.867233,257.317047 
	C218.704498,262.572540 219.281662,267.869080 219.998978,273.144135 
	C222.935074,294.735626 225.982300,316.312866 228.736679,337.927460 
	C229.266037,342.081482 231.073395,343.251740 234.920471,343.024567 
	C239.069931,342.779541 243.259491,342.754456 247.404633,343.033539 
	C251.056656,343.279419 253.220505,341.890320 254.914917,338.695007 
	C269.109711,311.926819 283.432983,285.226776 297.641296,258.465698 
	C298.569000,256.718353 298.867706,254.637054 299.747833,251.770294 
	C295.414703,251.770294 292.093353,252.041016 288.833527,251.708572 
	C283.589050,251.173737 280.671600,253.364319 278.413544,258.091797 
	C271.794159,271.950287 264.731781,285.597198 257.435852,299.957520 
M361.081909,298.585968 
	C372.363556,282.870178 383.645233,267.154388 395.440521,250.723068 
	C386.974243,250.723068 379.658569,250.863327 372.352478,250.659851 
	C369.036743,250.567505 366.916870,251.566605 364.920898,254.369232 
	C349.004822,276.717865 332.904175,298.935028 316.865021,321.196075 
	C311.867920,328.131653 306.886017,335.078217 301.242523,342.930603 
	C309.919495,342.930603 317.363861,343.227661 324.759888,342.759979 
	C327.158752,342.608307 330.205139,341.034180 331.636597,339.122986 
	C341.504089,325.947815 351.022400,312.511078 361.081909,298.585968 
M383.470215,343.000671 
	C387.205017,343.000671 390.939819,343.000671 395.717041,343.000671 
	C386.893890,330.786499 378.760345,319.526978 370.265106,307.766724 
	C365.969208,313.792297 361.793304,319.366272 358.016571,325.198761 
	C357.306641,326.295166 357.642120,328.761841 358.422150,330.022797 
	C366.470825,343.033508 366.523895,343.000671 381.985138,343.000671 
	C382.151733,343.000671 382.318329,343.000671 383.470215,343.000671 
M304.438538,254.962219 
	C311.684540,265.050537 318.930573,275.138885 326.579681,285.788391 
	C328.727966,282.741974 330.483490,280.356049 332.128510,277.896240 
	C334.782745,273.927490 339.471069,269.866089 339.388916,265.925385 
	C339.305298,261.916016 334.593262,257.929321 331.696503,254.092316 
	C330.677795,252.742966 329.064514,250.970276 327.668640,250.920959 
	C319.285065,250.624756 310.885773,250.773987 301.710602,250.773987 
	C302.793671,252.488602 303.389160,253.431305 304.438538,254.962219 
z"/>
<path fill="#5570A0" opacity="1.000000" stroke="none" 
	d="
M302.998138,448.088776 
	C313.135284,440.335052 323.624237,432.992615 333.308350,424.709229 
	C342.548157,416.805847 351.599884,408.489594 359.577484,399.345612 
	C374.145782,382.647308 388.527496,365.700439 401.746552,347.934296 
	C415.536560,329.400818 426.357269,308.922333 435.637756,287.733154 
	C437.234222,284.088013 439.165192,282.874786 443.091949,282.942596 
	C457.747559,283.195618 472.409760,283.069214 487.533112,283.157227 
	C489.956299,284.965576 491.915863,286.701874 494.660461,289.133759 
	C492.546356,291.405273 489.798798,294.488617 486.913055,297.436676 
	C469.024628,315.711426 451.210449,334.060699 433.161041,352.175415 
	C419.879272,365.505188 406.236664,378.474579 392.827972,391.678802 
	C379.786804,404.521118 366.805664,417.424927 353.858063,430.361664 
	C337.172150,447.033630 320.499207,463.719177 303.913788,480.490906 
	C295.818909,488.676697 287.939819,497.075745 279.937561,505.353607 
	C279.622803,505.679169 279.043884,505.749359 278.224304,505.972839 
	C277.797180,495.979767 277.733826,485.952484 278.135071,475.432922 
	C279.770721,474.366150 281.203491,474.050842 282.070557,473.175323 
	C287.998962,467.189270 293.608215,460.870758 299.760712,455.131470 
	C302.041870,453.003601 303.480560,451.168732 302.998138,448.088776 
z"/>
<path fill="#A8B8D1" opacity="1.000000" stroke="none" 
	d="
M277.157166,517.819031 
	C276.915619,517.656677 276.968140,517.371582 277.260468,516.940186 
	C277.630554,517.090332 277.614197,517.391174 277.157166,517.819031 
z"/>
<path fill="#40516D" opacity="1.000000" stroke="none" 
	d="
M197.861160,189.863525 
	C197.240692,190.699142 196.425430,191.256897 195.303207,191.821274 
	C195.886292,191.080505 196.776321,190.333084 197.861160,189.863525 
z"/>
<path fill="#435675" opacity="1.000000" stroke="none" 
	d="
M159.843384,274.314697 
	C168.706680,291.426849 177.399460,308.849274 186.158691,326.238220 
	C187.462296,328.826172 186.539337,329.955688 183.999405,330.345428 
	C183.348450,330.445343 182.672195,330.389374 182.007553,330.389679 
	C159.234375,330.399689 136.461182,330.413757 113.688019,330.396057 
	C112.721848,330.395325 111.755898,330.097565 110.427307,329.753662 
	C110.645935,328.980621 111.144852,328.040894 111.826439,327.881287 
	C113.016792,327.602539 114.319511,327.803650 115.735939,326.750061 
	C114.584129,325.934814 113.432320,325.119568 111.803070,323.966370 
	C113.190536,322.480255 114.355240,321.157898 115.597900,319.913391 
	C127.924484,307.568298 140.297195,295.268982 152.572632,282.873322 
	C155.124496,280.296478 157.329529,277.376160 159.843384,274.314697 
z"/>
<path fill="#445573" opacity="1.000000" stroke="none" 
	d="
M324.323975,95.990005 
	C324.759399,111.806725 324.807343,127.625565 324.906616,143.444077 
	C324.932037,147.492172 322.993225,147.984451 319.800354,146.483246 
	C319.048737,146.129883 318.235077,145.845474 317.582794,145.353287 
	C307.848450,138.008041 298.392303,138.055130 288.275513,145.168427 
	C282.628571,149.138931 275.915619,151.593353 269.338074,154.770447 
	C268.185272,153.697647 267.377441,152.585342 265.837891,150.465546 
	C270.107086,146.173615 275.402191,140.803772 280.748352,135.485245 
	C292.719208,123.576263 304.644043,111.618980 316.776306,99.876274 
	C318.658905,98.054115 321.537537,97.260994 324.323975,95.990005 
z"/>
<path fill="#445573" opacity="1.000000" stroke="none" 
	d="
M259.393860,155.954559 
	C259.790436,155.712555 260.184967,155.714233 260.577271,155.744507 
	C260.588348,155.745377 260.575867,156.051193 260.574341,156.214813 
	C260.180054,156.210632 259.785797,156.206436 259.393860,155.954559 
z"/>
<path fill="#55709F" opacity="1.000000" stroke="none" 
	d="
M539.798584,174.927399 
	C539.394897,174.967590 538.866638,174.720200 538.153625,174.243942 
	C538.537231,174.223328 539.105591,174.431564 539.798584,174.927399 
z"/>
<path fill="#55709F" opacity="1.000000" stroke="none" 
	d="
M540.356689,178.898682 
	C540.223267,178.970917 540.179260,178.489655 540.295898,178.278076 
	C540.694458,178.305069 540.720337,178.558380 540.356689,178.898682 
z"/>
<path fill="#55709F" opacity="1.000000" stroke="none" 
	d="
M230.084000,487.987976 
	C231.550766,488.636047 232.727783,489.462402 234.037766,490.573364 
	C232.711914,489.960724 231.253082,489.063477 230.084000,487.987976 
z"/>
<path fill="#4E658E" opacity="1.000000" stroke="none" 
	d="
M170.102646,429.334869 
	C170.334488,429.156799 170.566025,429.287842 170.743042,429.762512 
	C170.521088,429.878052 170.325684,429.724030 170.102646,429.334869 
z"/>
<path fill="#475A7C" opacity="1.000000" stroke="none" 
	d="
M392.920502,101.244789 
	C392.124664,101.240707 391.269318,100.893448 390.208862,100.267395 
	C390.956146,100.292931 391.908569,100.597275 392.920502,101.244789 
z"/>
<path fill="#4C6087" opacity="1.000000" stroke="none" 
	d="
M149.095291,403.141663 
	C149.352661,403.014191 149.606049,403.205536 149.813263,403.735046 
	C149.541565,403.852905 149.316299,403.648651 149.095291,403.141663 
z"/>
<path fill="#485B7D" opacity="1.000000" stroke="none" 
	d="
M476.026306,171.916351 
	C487.601501,177.601562 499.233246,183.177963 510.674652,189.120773 
	C511.986023,189.801926 513.175049,192.739868 512.832642,194.277756 
	C508.380005,214.273575 503.725708,234.226593 498.805908,254.112137 
	C498.423706,255.656967 495.695648,257.648224 494.020386,257.684143 
	C480.379669,257.976807 466.729828,257.810455 453.083221,257.881470 
	C448.904694,257.903229 448.448853,256.172180 449.599152,252.526093 
	C452.893372,242.084717 455.757965,231.507889 459.043030,221.063446 
	C460.140411,217.574493 459.075989,215.943359 455.927917,214.536804 
	C450.638977,212.173721 445.529205,209.409637 440.186096,206.190903 
	C440.613647,205.101562 441.363007,204.123291 441.759033,204.249908 
	C445.204254,205.351562 447.176758,203.572830 449.416016,201.254318 
	C455.257172,195.206360 461.603210,189.640884 467.357483,183.516174 
	C470.641785,180.020416 473.162048,175.806778 476.026306,171.916351 
z"/>
<path fill="#354052" opacity="1.000000" stroke="none" 
	d="
M257.639374,299.642273 
	C264.731781,285.597198 271.794159,271.950287 278.413544,258.091797 
	C280.671600,253.364319 283.589050,251.173737 288.833527,251.708572 
	C292.093353,252.041016 295.414703,251.770294 299.747833,251.770294 
	C298.867706,254.637054 298.569000,256.718353 297.641296,258.465698 
	C283.432983,285.226776 269.109711,311.926819 254.914917,338.695007 
	C253.220505,341.890320 251.056656,343.279419 247.404633,343.033539 
	C243.259491,342.754456 239.069931,342.779541 234.920471,343.024567 
	C231.073395,343.251740 229.266037,342.081482 228.736679,337.927460 
	C225.982300,316.312866 222.935074,294.735626 219.998978,273.144135 
	C219.281662,267.869080 218.704498,262.572540 217.867233,257.317047 
	C217.188477,253.056458 218.979248,251.633759 223.062561,251.741837 
	C239.969452,252.189301 236.031036,249.659744 237.999573,265.273682 
	C240.425323,284.514191 242.339905,303.819153 245.563095,323.453796 
	C249.520691,315.621704 253.478271,307.789612 257.639374,299.642273 
z"/>
<path fill="#445777" opacity="1.000000" stroke="none" 
	d="
M475.827362,171.632202 
	C473.162048,175.806778 470.641785,180.020416 467.357483,183.516174 
	C461.603210,189.640884 455.257172,195.206360 449.416016,201.254318 
	C447.176758,203.572830 445.204254,205.351562 441.759033,204.249908 
	C441.363007,204.123291 440.613647,205.101562 439.962830,205.931488 
	C439.897583,206.295441 439.412445,206.187180 439.205505,205.752014 
	C438.782501,204.856262 438.566467,204.395660 438.350403,203.935074 
	C438.207550,204.368881 438.064697,204.802689 437.921814,205.236481 
	C436.704529,204.751236 435.487213,204.266022 434.106873,203.126740 
	C433.692596,198.537766 431.505402,200.523743 429.775909,201.109863 
	C415.742126,194.206955 401.708618,187.303558 387.673462,180.403397 
	C387.228027,180.184387 386.766083,179.998917 386.137970,179.080460 
	C386.711884,175.741806 386.752380,172.530289 388.348846,170.617233 
	C392.132843,166.082916 396.729218,162.236572 400.860016,157.979034 
	C405.992371,152.689224 410.986511,147.265305 416.040344,141.899323 
	C428.187256,148.142365 440.278992,154.496048 452.501251,160.587936 
	C460.108246,164.379425 467.912598,167.774857 475.827362,171.632202 
z"/>
<path fill="#526A96" opacity="1.000000" stroke="none" 
	d="
M195.879913,419.048645 
	C185.952621,406.814026 175.836899,394.725739 166.174988,382.285004 
	C161.095367,375.744446 156.716492,368.647827 152.198944,361.686890 
	C149.332245,357.269745 150.186905,355.888367 155.517471,355.880035 
	C170.996292,355.855896 186.476624,355.779816 201.952240,356.006195 
	C203.894150,356.034576 206.385941,357.270508 207.645737,358.768677 
	C215.244354,367.805084 222.558243,377.080963 229.777863,386.732605 
	C227.060715,389.791382 224.531998,392.393250 222.005753,394.997498 
	C215.186295,402.027374 208.446320,409.137604 201.484924,416.023987 
	C200.036575,417.456787 197.769623,418.062042 195.879913,419.048645 
z"/>
<path fill="#435471" opacity="1.000000" stroke="none" 
	d="
M415.812897,141.617767 
	C410.986511,147.265305 405.992371,152.689224 400.860016,157.979034 
	C396.729218,162.236572 392.132843,166.082916 388.348846,170.617233 
	C386.752380,172.530289 386.711884,175.741806 385.941162,178.797394 
	C374.809113,173.794922 363.649384,168.456421 352.656830,162.793381 
	C351.327240,162.108414 350.188690,159.680557 350.166565,158.044189 
	C349.971375,143.586685 350.006866,129.125320 350.069122,114.665512 
	C350.089844,109.854172 351.322357,109.205475 355.886200,111.506851 
	C374.175385,120.729347 392.437836,130.004868 410.722809,139.235718 
	C412.296173,140.030014 413.962372,140.640411 415.812897,141.617767 
z"/>
<path fill="#617FB8" opacity="1.000000" stroke="none" 
	d="
M360.867432,298.872192 
	C351.022400,312.511078 341.504089,325.947815 331.636597,339.122986 
	C330.205139,341.034180 327.158752,342.608307 324.759888,342.759979 
	C317.363861,343.227661 309.919495,342.930603 301.242523,342.930603 
	C306.886017,335.078217 311.867920,328.131653 316.865021,321.196075 
	C332.904175,298.935028 349.004822,276.717865 364.920898,254.369232 
	C366.916870,251.566605 369.036743,250.567505 372.352478,250.659851 
	C379.658569,250.863327 386.974243,250.723068 395.440521,250.723068 
	C383.645233,267.154388 372.363556,282.870178 360.867432,298.872192 
z"/>
<path fill="#556F9D" opacity="1.000000" stroke="none" 
	d="
M196.032349,419.348907 
	C197.769623,418.062042 200.036575,417.456787 201.484924,416.023987 
	C208.446320,409.137604 215.186295,402.027374 222.005753,394.997498 
	C224.531998,392.393250 227.060715,389.791382 229.911484,387.046631 
	C237.074158,393.935577 243.995941,400.890015 250.667816,408.076447 
	C251.714218,409.203522 251.996140,411.381897 252.005234,413.077545 
	C252.096329,430.062439 252.090897,447.048187 251.998962,464.033081 
	C251.989929,465.702484 251.223495,467.367767 250.808624,469.034973 
	C249.063965,468.325470 246.911774,468.046997 245.636429,466.841125 
	C229.079987,451.187225 212.648071,435.401611 196.032349,419.348907 
z"/>
<path fill="#617FB8" opacity="1.000000" stroke="none" 
	d="
M382.977570,343.000671 
	C382.318329,343.000671 382.151733,343.000671 381.985138,343.000671 
	C366.523895,343.000671 366.470825,343.033508 358.422150,330.022797 
	C357.642120,328.761841 357.306641,326.295166 358.016571,325.198761 
	C361.793304,319.366272 365.969208,313.792297 370.265106,307.766724 
	C378.760345,319.526978 386.893890,330.786499 395.717041,343.000671 
	C390.939819,343.000671 387.205017,343.000671 382.977570,343.000671 
z"/>
<path fill="#617FB8" opacity="1.000000" stroke="none" 
	d="
M304.211578,254.668121 
	C303.389160,253.431305 302.793671,252.488602 301.710602,250.773987 
	C310.885773,250.773987 319.285065,250.624756 327.668640,250.920959 
	C329.064514,250.970276 330.677795,252.742966 331.696503,254.092316 
	C334.593262,257.929321 339.305298,261.916016 339.388916,265.925385 
	C339.471069,269.866089 334.782745,273.927490 332.128510,277.896240 
	C330.483490,280.356049 328.727966,282.741974 326.579681,285.788391 
	C318.930573,275.138885 311.684540,265.050537 304.211578,254.668121 
z"/>
<path fill="#556F9D" opacity="1.000000" stroke="none" 
	d="
M302.660034,448.152252 
	C303.480560,451.168732 302.041870,453.003601 299.760712,455.131470 
	C293.608215,460.870758 287.998962,467.189270 282.070557,473.175323 
	C281.203491,474.050842 279.770721,474.366150 278.230347,474.972046 
	C277.720856,462.683929 277.539734,450.364532 277.507721,438.044739 
	C277.504730,436.889618 278.157410,435.230347 279.032990,434.732483 
	C279.748627,434.325562 281.440308,435.040131 282.374176,435.710419 
	C287.640259,439.490112 292.749756,443.489929 298.056885,447.208801 
	C299.168152,447.987488 300.884460,447.902649 302.660034,448.152252 
z"/>
<path fill="#485B7D" opacity="1.000000" stroke="none" 
	d="
M429.952087,201.403564 
	C431.505402,200.523743 433.692596,198.537766 433.921570,202.853867 
	C432.642303,202.722458 431.385284,202.209854 429.952087,201.403564 
z"/>
<path fill="#485B7D" opacity="1.000000" stroke="none" 
	d="
M438.013550,205.459961 
	C438.064697,204.802689 438.207550,204.368881 438.350403,203.935074 
	C438.566467,204.395660 438.782501,204.856262 439.000732,205.611160 
	C439.002899,205.905457 438.520416,205.930573 438.520416,205.930573 
	C438.520416,205.930573 438.105286,205.683441 438.013550,205.459961 
z"/>
</svg>