<?xml version="1.0" encoding="utf-8"?>
<!-- Generator: Adobe Illustrator 26.1.0, SVG Export Plug-In . SVG Version: 6.00 Build 0)  -->
<svg version="1.1" id="Layer_1" xmlns="http://www.w3.org/2000/svg" xmlns:xlink="http://www.w3.org/1999/xlink" x="0px" y="0px"
	 viewBox="0 0 500 500" style="enable-background:new 0 0 500 500;" xml:space="preserve">
<style type="text/css">
	.st0{fill:#5F7EB6;}
</style>
<g>
	<path class="st0" d="M464.61,36.61c-1.05,1.6-1.53,2.41-2.08,3.17C362.9,178.01,263.27,316.23,163.66,454.46
		c-3.2,4.44-7.32,6.69-12.93,6.69c-37,0-74.01,0.15-111.01,0.2c-2.4,0-4.8-0.4-7.78-0.66c1.27-1.8,2.14-3.06,3.03-4.29
		c44.79-61.81,89.72-123.52,134.3-185.47c25.21-35.02,49.63-70.61,74.8-105.66c29.17-40.62,58.8-80.9,88.13-121.4
		c3.79-5.23,8.5-7.55,14.95-7.51c34.75,0.19,69.5,0.2,104.25,0.26C455.52,36.62,459.62,36.61,464.61,36.61z"/>
	<path class="st0" d="M348.62,301.42c38.9,53.7,77.67,107.23,116.77,161.22c-3.71,0.19-6.8,0.47-9.89,0.48
		c-36.22,0.07-72.44,0.01-108.66,0.21c-6.61,0.04-11.23-2.36-15.06-7.75c-13.85-19.45-27.97-38.7-41.99-58.03
		c-3.94-5.43-3.97-8.27-0.07-13.74c18.96-26.62,37.93-53.23,56.91-79.84C347.2,303.18,347.82,302.44,348.62,301.42z"/>
	<path class="st0" d="M30.92,37.12c3.48-0.19,6.27-0.47,9.06-0.48c36.61-0.1,73.23-0.13,109.84-0.25
		c5.97-0.02,10.44,2.27,13.94,7.15c15.19,21.14,30.51,42.19,45.78,63.27c0.34,0.47,0.64,0.97,1.09,1.66
		c-21.2,29.84-42.43,59.72-63.91,89.97C108.08,144.61,69.72,91.17,30.92,37.12z"/>
</g>
</svg>
